%FSLAX44Y44*%
%MOMM*%
G71*
G01*
G75*
G04 Layer_Physical_Order=1*
G04 Layer_Color=13311*
%ADD10R,0.9000X0.8000*%
%ADD11R,0.8000X0.9000*%
%ADD12R,1.5000X0.8000*%
%ADD13R,0.8000X1.5000*%
%ADD14R,1.6800X1.5600*%
%ADD15R,0.7000X0.9500*%
%ADD16R,0.8000X0.8000*%
%ADD17R,0.8000X0.8000*%
%ADD18R,5.6000X5.6000*%
%ADD19R,2.0000X1.2000*%
%ADD20R,5.5000X2.0000*%
%ADD21R,0.8500X0.3000*%
%ADD22R,0.3000X0.8500*%
%ADD23R,1.1000X1.2500*%
%ADD24C,1.0000*%
%ADD25C,0.5080*%
%ADD26C,0.2540*%
%ADD27C,0.5000*%
%ADD28C,2.0000*%
%ADD29C,3.2500*%
%ADD30C,1.5000*%
%ADD31C,2.4000*%
%ADD32C,0.7000*%
%ADD33C,0.7100*%
D10*
X126500Y307000D02*
D03*
Y323000D02*
D03*
X185250Y246250D02*
D03*
Y230250D02*
D03*
X153500Y307000D02*
D03*
Y323000D02*
D03*
X185250Y198750D02*
D03*
Y214750D02*
D03*
X41750Y253250D02*
D03*
Y269250D02*
D03*
X205000Y198750D02*
D03*
Y214750D02*
D03*
D11*
X122250Y153000D02*
D03*
X106250D02*
D03*
X49000Y236250D02*
D03*
X33000D02*
D03*
X121250Y338500D02*
D03*
X105250D02*
D03*
X76250D02*
D03*
X92250D02*
D03*
X258000Y198750D02*
D03*
X274000D02*
D03*
D12*
X19250Y279250D02*
D03*
X19250Y253250D02*
D03*
X351000Y282000D02*
D03*
X351000Y256000D02*
D03*
X371000Y371000D02*
D03*
X371000Y397000D02*
D03*
D13*
X285500Y315750D02*
D03*
X259500Y315750D02*
D03*
D14*
X351000Y187750D02*
D03*
Y237750D02*
D03*
X304250Y187750D02*
D03*
Y237750D02*
D03*
D15*
X240000Y198750D02*
D03*
X223500D02*
D03*
D16*
X382270Y500000D02*
D03*
Y516000D02*
D03*
X330200Y500000D02*
D03*
Y516000D02*
D03*
X90170Y500000D02*
D03*
Y516000D02*
D03*
X39370Y500000D02*
D03*
Y516000D02*
D03*
D17*
X122750Y170250D02*
D03*
X106750D02*
D03*
X378500Y337000D02*
D03*
X362500D02*
D03*
D18*
X260250Y381250D02*
D03*
D19*
X332250Y403750D02*
D03*
Y358750D02*
D03*
D20*
X186250Y384500D02*
D03*
X96250D02*
D03*
D21*
X65300Y201260D02*
D03*
Y206260D02*
D03*
Y211260D02*
D03*
Y216260D02*
D03*
Y221260D02*
D03*
Y226260D02*
D03*
Y231260D02*
D03*
Y236260D02*
D03*
Y241260D02*
D03*
Y246260D02*
D03*
Y251260D02*
D03*
Y256260D02*
D03*
Y261260D02*
D03*
Y266260D02*
D03*
Y271260D02*
D03*
Y276260D02*
D03*
X163800D02*
D03*
Y271260D02*
D03*
Y266260D02*
D03*
Y261260D02*
D03*
Y256260D02*
D03*
Y251260D02*
D03*
Y246260D02*
D03*
Y241260D02*
D03*
Y236260D02*
D03*
Y231260D02*
D03*
Y226260D02*
D03*
Y221260D02*
D03*
Y216260D02*
D03*
Y211260D02*
D03*
Y206260D02*
D03*
Y201260D02*
D03*
D22*
X76800Y287760D02*
D03*
X81800Y287760D02*
D03*
X86800D02*
D03*
X91800D02*
D03*
X96800D02*
D03*
X101800D02*
D03*
X106800D02*
D03*
X111800D02*
D03*
X116800D02*
D03*
X121800D02*
D03*
X126800D02*
D03*
X131800D02*
D03*
X136800D02*
D03*
X141800D02*
D03*
X146800D02*
D03*
X151800D02*
D03*
X151800Y189760D02*
D03*
X146800D02*
D03*
X141800D02*
D03*
X136800D02*
D03*
X131800D02*
D03*
X126800D02*
D03*
X121800D02*
D03*
X116800D02*
D03*
X111800D02*
D03*
X106800D02*
D03*
X101800D02*
D03*
X96800D02*
D03*
X91800D02*
D03*
X86800D02*
D03*
X81800D02*
D03*
X76800D02*
D03*
D23*
X351000Y297250D02*
D03*
X351000Y320750D02*
D03*
X39370Y538160D02*
D03*
X39370Y561660D02*
D03*
X90170Y561280D02*
D03*
X90170Y537780D02*
D03*
X330200Y538160D02*
D03*
X330200Y561660D02*
D03*
X382270D02*
D03*
X382270Y538160D02*
D03*
D24*
X60250Y338750D02*
Y406000D01*
X74250Y420000D01*
X210500D01*
X223250Y407250D01*
Y368000D02*
Y407250D01*
X207000Y351750D02*
X223250Y368000D01*
X170000Y351750D02*
X207000D01*
X157500Y339250D02*
X170000Y351750D01*
X140250Y339250D02*
X157500D01*
X240000Y330500D02*
Y361000D01*
Y314500D02*
Y330500D01*
Y299250D02*
Y314500D01*
X228250Y285000D02*
X239000D01*
X240000Y284000D02*
Y299250D01*
X228250Y272750D02*
X239750D01*
X240000Y256500D02*
Y273000D01*
Y284000D01*
X304250Y90750D02*
Y187750D01*
Y90750D02*
X304750Y90250D01*
X351000Y171500D02*
X387500Y135000D01*
Y91000D02*
Y135000D01*
X351000Y171500D02*
Y187750D01*
X304250Y237750D02*
X351000D01*
Y252500D01*
Y237750D02*
X377250D01*
X398500Y259000D01*
X391500Y413750D02*
X398500Y406750D01*
X342250Y413750D02*
X391500D01*
X332250Y403750D02*
X342250Y413750D01*
X240000Y236250D02*
Y256500D01*
X398500Y259000D02*
Y318250D01*
Y406750D01*
D25*
X60250Y338750D02*
X60500Y338500D01*
X76250D01*
X139500D02*
X153500Y324500D01*
Y323000D02*
Y324500D01*
X229750Y246250D02*
X240000Y256500D01*
X185250Y246250D02*
X229750D01*
X240000Y361000D02*
X260250Y381250D01*
X126500Y307000D02*
X153500D01*
X241750Y315750D02*
X259500D01*
X185240Y246260D02*
X185250Y246250D01*
X185260Y246260D01*
X240000Y198750D02*
X258000D01*
X274000Y144500D02*
Y198750D01*
X17500Y236500D02*
X32750D01*
X41750Y269250D02*
Y281250D01*
X371250Y370750D02*
X388000D01*
X351000Y282000D02*
Y297250D01*
X369250D01*
X19250Y253250D02*
X41750D01*
X39370Y561660D02*
Y577130D01*
X76970Y561280D02*
X90170D01*
X368430Y575500D02*
X382270Y561660D01*
X310250Y562000D02*
X329860D01*
X99750Y159500D02*
X106250Y153000D01*
X95250Y159500D02*
X99750D01*
X19250Y279250D02*
Y295500D01*
X185250Y198750D02*
X205000D01*
X223500D01*
X205000Y180500D02*
Y198750D01*
X240000D02*
Y236250D01*
X185750Y229750D02*
X230750D01*
X215500Y214750D02*
X219750Y219000D01*
X205000Y214750D02*
X215500D01*
X185250D02*
X205000D01*
X76250Y319250D02*
Y338500D01*
Y319250D02*
X91750Y303750D01*
X126500Y325500D02*
X139500Y338500D01*
X121250D02*
X139500D01*
X96250Y353750D02*
Y384500D01*
X92250Y349750D02*
X96250Y353750D01*
X92250Y338500D02*
Y349750D01*
X105250Y338500D02*
Y349500D01*
X110750Y355000D01*
X156750D01*
X186250Y384500D01*
X49000Y229514D02*
Y236250D01*
Y229514D02*
X55503Y223011D01*
X332250Y358750D02*
X376000D01*
X388000Y370750D01*
X285500Y315750D02*
X299500D01*
X332250Y348500D01*
Y358750D01*
X378500Y337000D02*
X397250Y318250D01*
X398500D01*
X371000Y397000D02*
Y400250D01*
X332250Y403750D02*
X333750Y405250D01*
X366000D01*
X371000Y400250D01*
X351000Y320750D02*
Y331750D01*
X356250Y337000D01*
X362500D01*
X153500Y307000D02*
X181250D01*
X216000Y341750D01*
X239250D01*
D26*
X90170Y480499D02*
Y500000D01*
X16130Y406460D02*
X90170Y480499D01*
X16130Y353870D02*
Y406460D01*
X39370Y436120D02*
Y500000D01*
X11000Y407750D02*
X39370Y436120D01*
X11000Y351000D02*
Y407750D01*
X52790Y436040D02*
X266240D01*
X20670Y403920D02*
X52790Y436040D01*
X20670Y356830D02*
Y403920D01*
X55079Y431500D02*
X348500D01*
X25210Y401631D02*
X55079Y431500D01*
X25210Y359290D02*
Y401631D01*
X74300Y65500D02*
X98511D01*
X53390Y86410D02*
X74300Y65500D01*
X61540Y60960D02*
X100392D01*
X42000Y80500D02*
X61540Y60960D01*
X42000Y80500D02*
Y94500D01*
X59310Y111810D01*
X66090D01*
X80720Y105780D02*
X100090Y86410D01*
X104190D01*
X141800Y295300D02*
X153500Y307000D01*
X141800Y287760D02*
Y295300D01*
X126800Y287760D02*
Y306700D01*
X163800Y246260D02*
X185240D01*
X274000Y198750D02*
Y200500D01*
X182100Y230250D02*
X185250D01*
X171320Y241030D02*
X182100Y230250D01*
X163800Y241260D02*
X164030Y241030D01*
X171320D01*
X116800Y180300D02*
Y189760D01*
X114750Y178250D02*
X116800Y180300D01*
X106800Y170300D02*
Y189760D01*
X121800Y153450D02*
X122250Y153000D01*
X111570Y287990D02*
X111800Y287760D01*
X49010Y236260D02*
X65300D01*
X41750Y253250D02*
X48000D01*
X57780Y243470D01*
Y243405D02*
Y243470D01*
Y243405D02*
X59925Y241260D01*
X65300D01*
X76500Y561750D02*
X76970Y561280D01*
X367750Y575500D02*
X368430D01*
X329860Y562000D02*
X330200Y561660D01*
X39370Y516000D02*
Y538160D01*
X348500Y431500D02*
X382270Y465270D01*
Y500000D01*
X266240Y436040D02*
X330200Y500000D01*
X86800Y287760D02*
Y297700D01*
X25210Y359290D02*
X86800Y297700D01*
X20670Y356830D02*
X65300Y312200D01*
Y276260D02*
Y312200D01*
X56104Y266490D02*
X65070D01*
X65300Y266260D01*
X59696Y271490D02*
X65300D01*
Y271260D02*
Y271490D01*
X56250Y274935D02*
X59696Y271490D01*
X51710Y270883D02*
Y310290D01*
Y270883D02*
X56104Y266490D01*
X56250Y274935D02*
Y313750D01*
X16130Y353870D02*
X56250Y313750D01*
X11000Y351000D02*
X51710Y310290D01*
X90170Y516000D02*
Y537780D01*
X330200Y516000D02*
Y538160D01*
X382270Y516000D02*
Y538160D01*
X80720Y105780D02*
Y159470D01*
X91500Y170250D01*
X106750D01*
X100392Y60960D02*
X151800Y112368D01*
X98511Y65500D02*
X146800Y113789D01*
X151800Y112368D02*
Y189760D01*
X146800Y113789D02*
Y189760D01*
X122750Y170250D02*
X132500D01*
X19000Y295750D02*
X19250Y295500D01*
X141800Y159550D02*
Y189760D01*
X163800Y211260D02*
X172740D01*
X185250Y198750D01*
X163800Y216260D02*
X183740D01*
X185250Y214750D01*
X121800Y153450D02*
Y189760D01*
X106250Y153000D02*
X114750Y161500D01*
Y178250D01*
X135250Y153000D02*
X141800Y159550D01*
X133500Y153000D02*
X135250D01*
X185250Y230250D02*
X185750Y229750D01*
X126500Y323000D02*
Y325500D01*
X91750Y303750D02*
X101935D01*
X111570Y294115D01*
Y287990D02*
Y294115D01*
X92250Y320000D02*
Y338500D01*
Y320000D02*
X116800Y295450D01*
Y287760D02*
Y295450D01*
X105250Y313421D02*
Y338500D01*
Y313421D02*
X121570Y297101D01*
Y287990D02*
Y297101D01*
Y287990D02*
X121800Y287760D01*
D27*
X269750Y140250D02*
X274000Y144500D01*
X239500Y330000D02*
X240000Y330500D01*
X239500Y314000D02*
X240000Y314500D01*
X239500Y299750D02*
X240000Y299250D01*
X239000Y285000D02*
X240000Y284000D01*
X239750Y272750D02*
X240000Y273000D01*
X91490Y111810D02*
X112060D01*
X122250Y122000D01*
Y153000D01*
D28*
X387500Y91000D02*
D03*
X352500Y141000D02*
D03*
X269750Y140250D02*
D03*
X304750Y90250D02*
D03*
D29*
X123190Y22810D02*
D03*
X21590D02*
D03*
D30*
X66090Y111810D02*
D03*
X78790Y86410D02*
D03*
X53390D02*
D03*
X40690Y111810D02*
D03*
X91490D02*
D03*
X104190Y86410D02*
D03*
D31*
X151930Y541020D02*
D03*
X201930D02*
D03*
X251930D02*
D03*
D32*
X140250Y339250D02*
D03*
X60250Y338750D02*
D03*
X228250Y272750D02*
D03*
Y285000D02*
D03*
X17500Y236500D02*
D03*
X41500Y281500D02*
D03*
X388000Y370750D02*
D03*
X369500Y297500D02*
D03*
X39250Y577250D02*
D03*
X76500Y561750D02*
D03*
X367750Y575500D02*
D03*
X310250Y562000D02*
D03*
X132500Y170250D02*
D03*
X55503Y223011D02*
D03*
X19000Y295750D02*
D03*
X205000Y180500D02*
D03*
X133500Y153000D02*
D03*
X230750Y229750D02*
D03*
X219750Y219000D02*
D03*
D33*
X95250Y159500D02*
D03*
M02*
