%FSLAX44Y44*%
%MOMM*%
G71*
G01*
G75*
G04 Layer_Color=65535*
%ADD10R,0.8000X0.9000*%
%ADD11R,0.9000X0.8000*%
%ADD12R,1.5000X0.8000*%
%ADD13R,0.8000X1.5000*%
%ADD14R,1.1000X1.2500*%
G04:AMPARAMS|DCode=15|XSize=1.25mm|YSize=1.1mm|CornerRadius=0.275mm|HoleSize=0mm|Usage=FLASHONLY|Rotation=90.000|XOffset=0mm|YOffset=0mm|HoleType=Round|Shape=RoundedRectangle|*
%AMROUNDEDRECTD15*
21,1,1.2500,0.5500,0,0,90.0*
21,1,0.7000,1.1000,0,0,90.0*
1,1,0.5500,0.2750,0.3500*
1,1,0.5500,0.2750,-0.3500*
1,1,0.5500,-0.2750,-0.3500*
1,1,0.5500,-0.2750,0.3500*
%
%ADD15ROUNDEDRECTD15*%
%ADD16R,1.6800X1.5600*%
%ADD17R,0.8000X0.8000*%
%ADD18R,0.8000X0.8000*%
%ADD19R,0.7000X0.9500*%
%ADD20R,5.6000X5.6000*%
%ADD21R,2.0000X1.2000*%
%ADD22R,5.5000X2.0000*%
%ADD23R,0.3000X0.8500*%
%ADD24R,0.8500X0.3000*%
%ADD25C,0.2540*%
%ADD26C,1.0000*%
%ADD27C,1.2500*%
%ADD28C,2.4000*%
%ADD29C,3.2500*%
%ADD30C,1.5000*%
%ADD31C,0.7000*%
%ADD32C,0.1000*%
%ADD33C,0.2000*%
%ADD34C,0.2500*%
%ADD35C,0.3000*%
G36*
X95170Y547030D02*
X85670D01*
X90170Y551530D01*
X95170Y547030D01*
D02*
G37*
G36*
X351000Y307000D02*
X346000Y311500D01*
X355500D01*
X351000Y307000D01*
D02*
G37*
G36*
X44370Y547410D02*
X34870D01*
X39370Y551910D01*
X44370Y547410D01*
D02*
G37*
G36*
X387270D02*
X377770D01*
X382270Y551910D01*
X387270Y547410D01*
D02*
G37*
G36*
X335200D02*
X325700D01*
X330200Y551910D01*
X335200Y547410D01*
D02*
G37*
D25*
X166930Y626020D02*
X171930Y631020D01*
Y736020D01*
X231930Y631020D02*
X236930Y626020D01*
X231930Y631020D02*
Y736020D01*
X116930Y486020D02*
X286930D01*
Y581020D01*
X116930Y486020D02*
Y581020D01*
X166930D01*
Y626020D01*
X171930Y736020D02*
X176930Y741020D01*
X236930Y581020D02*
X286930D01*
X236930D02*
Y626020D01*
X226930Y741020D02*
X231930Y736020D01*
X176930Y741020D02*
X226680D01*
X173000Y355000D02*
Y366000D01*
X43000Y355000D02*
X173000D01*
X43000D02*
Y366000D01*
Y394000D02*
Y405000D01*
X173000D01*
X173000Y394000D02*
Y405000D01*
X6390Y-56190D02*
X138390D01*
X6390Y128810D02*
X138390D01*
X30765Y423250D02*
X46000D01*
Y433407D01*
X30765Y448642D02*
Y438485D01*
X46000D01*
Y448642D01*
X38382Y438485D02*
Y443563D01*
X30765Y453720D02*
X46000D01*
Y461338D01*
X43461Y463877D01*
X33304D01*
X30765Y461338D01*
Y453720D01*
X33304Y468955D02*
X30765Y471494D01*
Y476573D01*
X33304Y479112D01*
X35843D01*
X38382Y476573D01*
Y474034D01*
Y476573D01*
X40922Y479112D01*
X43461D01*
X46000Y476573D01*
Y471494D01*
X43461Y468955D01*
X81765Y423250D02*
X97000D01*
Y433407D01*
X81765Y448642D02*
Y438485D01*
X97000D01*
Y448642D01*
X89382Y438485D02*
Y443563D01*
X81765Y453720D02*
X97000D01*
Y461338D01*
X94461Y463877D01*
X84304D01*
X81765Y461338D01*
Y453720D01*
X97000Y479112D02*
Y468955D01*
X86843Y479112D01*
X84304D01*
X81765Y476573D01*
Y471494D01*
X84304Y468955D01*
X322765Y423250D02*
X338000D01*
Y433407D01*
X322765Y448642D02*
Y438485D01*
X338000D01*
Y448642D01*
X330382Y438485D02*
Y443563D01*
X322765Y453720D02*
X338000D01*
Y461338D01*
X335461Y463877D01*
X325304D01*
X322765Y461338D01*
Y453720D01*
X338000Y468955D02*
Y474034D01*
Y471494D01*
X322765D01*
X325304Y468955D01*
X375765Y423250D02*
X391000D01*
Y433407D01*
X375765Y448642D02*
Y438485D01*
X391000D01*
Y448642D01*
X383382Y438485D02*
Y443563D01*
X375765Y453720D02*
X391000D01*
Y461338D01*
X388461Y463877D01*
X378304D01*
X375765Y461338D01*
Y453720D01*
X378304Y468955D02*
X375765Y471494D01*
Y476573D01*
X378304Y479112D01*
X388461D01*
X391000Y476573D01*
Y471494D01*
X388461Y468955D01*
X378304D01*
D32*
X379736Y103248D02*
G03*
X375341Y95946I-111J-4906D01*
G01*
X383499Y79749D02*
G03*
X393499Y85999I19J11094D01*
G01*
X373499D02*
G03*
X383499Y79749I9980J4844D01*
G01*
X391665Y96263D02*
G03*
X387431Y103249I-4213J2223D01*
G01*
X356560Y146064D02*
G03*
X352205Y153249I-4333J2286D01*
G01*
X338499Y135999D02*
G03*
X348499Y129749I9980J4844D01*
G01*
D02*
G03*
X358499Y135999I19J11094D01*
G01*
X344736Y153248D02*
G03*
X340341Y145946I-111J-4906D01*
G01*
X269736Y153248D02*
G03*
X265341Y145946I-111J-4906D01*
G01*
X273499Y129749D02*
G03*
X283499Y135999I19J11094D01*
G01*
X263499D02*
G03*
X273499Y129749I9980J4844D01*
G01*
X281560Y146064D02*
G03*
X277205Y153249I-4333J2286D01*
G01*
X316665Y96263D02*
G03*
X312431Y103249I-4213J2223D01*
G01*
X298499Y85999D02*
G03*
X308499Y79749I9980J4844D01*
G01*
D02*
G03*
X318499Y85999I19J11094D01*
G01*
X304736Y103248D02*
G03*
X300341Y95946I-111J-4906D01*
G01*
X358749Y139999D02*
X395999D01*
X335999Y90499D02*
X373249D01*
X379624Y103249D02*
X387452D01*
X344624Y153249D02*
X352227D01*
X326450Y507250D02*
Y508750D01*
X333950Y507250D02*
Y508750D01*
X86420Y507250D02*
Y508750D01*
X93920Y507250D02*
Y508750D01*
X35620Y507250D02*
Y508750D01*
X43120Y507250D02*
Y508750D01*
X80250Y169750D02*
X81750D01*
X80250Y162250D02*
X81750D01*
X365250Y334250D02*
X366750D01*
X365250Y341750D02*
X366750D01*
X269625Y153249D02*
X277227D01*
X304625Y103249D02*
X312452D01*
X260999Y90499D02*
X298249D01*
X283749Y139999D02*
X320999D01*
X378520Y507250D02*
Y508750D01*
X386020Y507250D02*
Y508750D01*
D33*
X66612Y188760D02*
G03*
X66612Y188760I-2061J0D01*
G01*
X336499Y157499D02*
X395499D01*
X335999Y43999D02*
X395999D01*
X335999Y162999D02*
X395999D01*
Y43999D02*
Y162749D01*
X335999Y43999D02*
Y162749D01*
X326200Y551660D02*
X334200D01*
X86170Y551280D02*
X94170D01*
X35370Y551660D02*
X43370D01*
X321000Y191750D02*
X322500D01*
X293500D02*
X295000D01*
X320500Y234000D02*
X322500D01*
X320500Y230500D02*
Y234000D01*
X293500D02*
X295500D01*
Y230000D02*
Y234000D01*
X322500Y191750D02*
Y234000D01*
X293500Y191750D02*
Y234000D01*
X347000Y307250D02*
X355000D01*
X260999Y43999D02*
Y162749D01*
X320999Y43999D02*
Y162749D01*
X260999Y162999D02*
X320999D01*
X260999Y43999D02*
X320999D01*
X261499Y157499D02*
X320499D01*
X378270Y551660D02*
X386270D01*
X336500Y191750D02*
Y234000D01*
X365500Y191750D02*
Y234000D01*
X338500Y230000D02*
Y234000D01*
X336500D02*
X338500D01*
X363500Y230500D02*
Y234000D01*
X365500D01*
X336500Y191750D02*
X338000D01*
X364000D02*
X365500D01*
X253500Y270000D02*
Y290000D01*
Y270000D02*
X288500D01*
Y290000D01*
X253500D02*
X288500D01*
X77550Y202010D02*
X151050D01*
X161050Y192010D02*
Y195510D01*
X157550Y192010D02*
X161050D01*
X160550Y282010D02*
Y285010D01*
X157550D02*
X160550D01*
X68050D02*
X71050D01*
X68050Y282010D02*
Y285010D01*
Y192510D02*
Y195510D01*
Y192510D02*
X71050D01*
X151050Y202010D02*
Y275510D01*
X77550D02*
X151050D01*
X77550Y202010D02*
Y275510D01*
X70000Y310995D02*
Y298499D01*
X72499Y296000D01*
X77498D01*
X79997Y298499D01*
Y310995D01*
X84995Y296000D02*
X89993D01*
X87494D01*
Y310995D01*
X84995Y308496D01*
X117430Y426015D02*
Y423516D01*
X122428Y418518D01*
X127427Y423516D01*
Y426015D01*
X122428Y418518D02*
Y411020D01*
X132425D02*
X137424D01*
X134924D01*
Y426015D01*
X132425Y423516D01*
X249500Y430495D02*
Y417999D01*
X251999Y415500D01*
X256998D01*
X259497Y417999D01*
Y430495D01*
X274492Y415500D02*
X264495D01*
X274492Y425497D01*
Y427996D01*
X271993Y430495D01*
X266994D01*
X264495Y427996D01*
X354000Y346000D02*
Y360995D01*
X361498D01*
X363997Y358496D01*
Y353498D01*
X361498Y350998D01*
X354000D01*
X358998D02*
X363997Y346000D01*
X376493D02*
Y360995D01*
X368995Y353498D01*
X378992D01*
X40000Y158750D02*
Y173745D01*
X47498D01*
X49997Y171246D01*
Y166248D01*
X47498Y163748D01*
X40000D01*
X44998D02*
X49997Y158750D01*
X54995Y171246D02*
X57494Y173745D01*
X62493D01*
X64992Y171246D01*
Y168747D01*
X62493Y166248D01*
X59994D01*
X62493D01*
X64992Y163748D01*
Y161249D01*
X62493Y158750D01*
X57494D01*
X54995Y161249D01*
X26250Y495000D02*
X11255D01*
Y502498D01*
X13754Y504997D01*
X18752D01*
X21252Y502498D01*
Y495000D01*
Y499998D02*
X26250Y504997D01*
Y519992D02*
Y509995D01*
X16253Y519992D01*
X13754D01*
X11255Y517493D01*
Y512494D01*
X13754Y509995D01*
X77250Y495000D02*
X62255D01*
Y502498D01*
X64754Y504997D01*
X69752D01*
X72252Y502498D01*
Y495000D01*
Y499998D02*
X77250Y504997D01*
Y519992D02*
Y509995D01*
X67253Y519992D01*
X64754D01*
X62255Y517493D01*
Y512494D01*
X64754Y509995D01*
X318750Y495000D02*
X303755D01*
Y502497D01*
X306254Y504997D01*
X311252D01*
X313752Y502497D01*
Y495000D01*
Y499998D02*
X318750Y504997D01*
Y519992D02*
Y509995D01*
X308753Y519992D01*
X306254D01*
X303755Y517493D01*
Y512494D01*
X306254Y509995D01*
X369500Y495000D02*
X354505D01*
Y502498D01*
X357004Y504997D01*
X362002D01*
X364502Y502498D01*
Y495000D01*
Y499998D02*
X369500Y504997D01*
Y519992D02*
Y509995D01*
X359503Y519992D01*
X357004D01*
X354505Y517493D01*
Y512494D01*
X357004Y509995D01*
X117000Y462000D02*
Y476995D01*
X124498D01*
X126997Y474496D01*
Y469498D01*
X124498Y466998D01*
X117000D01*
X121998D02*
X126997Y462000D01*
X131995D02*
X136994D01*
X134494D01*
Y476995D01*
X131995Y474496D01*
X263997Y309995D02*
X254000D01*
Y302498D01*
X258998D01*
X254000D01*
Y295000D01*
X268995Y309995D02*
Y295000D01*
X276493D01*
X278992Y297499D01*
Y299998D01*
X276493Y302498D01*
X268995D01*
X276493D01*
X278992Y304997D01*
Y307496D01*
X276493Y309995D01*
X268995D01*
X283990Y295000D02*
X288989D01*
X286490D01*
Y309995D01*
X283990Y307496D01*
X376995Y322000D02*
X362000D01*
Y314502D01*
X364499Y312003D01*
X374496D01*
X376995Y314502D01*
Y322000D01*
X362000Y299507D02*
X376995D01*
X369498Y307005D01*
Y297008D01*
X262000Y220995D02*
Y206000D01*
X269498D01*
X271997Y208499D01*
Y218496D01*
X269498Y220995D01*
X262000D01*
X276995Y218496D02*
X279494Y220995D01*
X284493D01*
X286992Y218496D01*
Y215997D01*
X284493Y213498D01*
X281994D01*
X284493D01*
X286992Y210998D01*
Y208499D01*
X284493Y206000D01*
X279494D01*
X276995Y208499D01*
X372000Y219995D02*
Y205000D01*
X379498D01*
X381997Y207499D01*
Y217496D01*
X379498Y219995D01*
X372000D01*
X396992Y205000D02*
X386995D01*
X396992Y214997D01*
Y217496D01*
X394493Y219995D01*
X389494D01*
X386995Y217496D01*
X11005Y537250D02*
X26000D01*
Y544748D01*
X23501Y547247D01*
X13504D01*
X11005Y544748D01*
Y537250D01*
X26000Y552245D02*
Y557244D01*
Y554744D01*
X11005D01*
X13504Y552245D01*
X61755Y537250D02*
X76750D01*
Y544748D01*
X74251Y547247D01*
X64254D01*
X61755Y544748D01*
Y537250D01*
X76750Y552245D02*
Y557244D01*
Y554744D01*
X61755D01*
X64254Y552245D01*
X302505Y537250D02*
X317500D01*
Y544748D01*
X315001Y547247D01*
X305004D01*
X302505Y544748D01*
Y537250D01*
X317500Y552245D02*
Y557244D01*
Y554744D01*
X302505D01*
X305004Y552245D01*
X354255Y537250D02*
X369250D01*
Y544748D01*
X366751Y547247D01*
X356754D01*
X354255Y544748D01*
Y537250D01*
X369250Y552245D02*
Y557243D01*
Y554744D01*
X354255D01*
X356754Y552245D01*
X191247Y203246D02*
X188748Y205745D01*
X183749D01*
X181250Y203246D01*
Y193249D01*
X183749Y190750D01*
X188748D01*
X191247Y193249D01*
X196245Y190750D02*
X201243D01*
X198744D01*
Y205745D01*
X196245Y203246D01*
X218738Y205745D02*
X208741D01*
Y198248D01*
X213739Y200747D01*
X216239D01*
X218738Y198248D01*
Y193249D01*
X216239Y190750D01*
X211240D01*
X208741Y193249D01*
X234997Y259496D02*
X232498Y261995D01*
X227499D01*
X225000Y259496D01*
Y249499D01*
X227499Y247000D01*
X232498D01*
X234997Y249499D01*
X239995Y247000D02*
X244993D01*
X242494D01*
Y261995D01*
X239995Y259496D01*
X259989Y247000D02*
Y261995D01*
X252491Y254498D01*
X262488D01*
X258997Y337496D02*
X256498Y339995D01*
X251499D01*
X249000Y337496D01*
Y327499D01*
X251499Y325000D01*
X256498D01*
X258997Y327499D01*
X263995Y325000D02*
X268993D01*
X266494D01*
Y339995D01*
X263995Y337496D01*
X276491D02*
X278990Y339995D01*
X283989D01*
X286488Y337496D01*
Y334997D01*
X283989Y332498D01*
X281490D01*
X283989D01*
X286488Y329998D01*
Y327499D01*
X283989Y325000D01*
X278990D01*
X276491Y327499D01*
X395496Y393003D02*
X397995Y395502D01*
Y400501D01*
X395496Y403000D01*
X385499D01*
X383000Y400501D01*
Y395502D01*
X385499Y393003D01*
X383000Y388005D02*
Y383007D01*
Y385506D01*
X397995D01*
X395496Y388005D01*
X383000Y365512D02*
Y375509D01*
X392997Y365512D01*
X395496D01*
X397995Y368011D01*
Y373010D01*
X395496Y375509D01*
X375496Y275003D02*
X377995Y277502D01*
Y282501D01*
X375496Y285000D01*
X365499D01*
X363000Y282501D01*
Y277502D01*
X365499Y275003D01*
X363000Y270005D02*
Y265007D01*
Y267506D01*
X377995D01*
X375496Y270005D01*
X363000Y257509D02*
Y252511D01*
Y255010D01*
X377995D01*
X375496Y257509D01*
X16504Y229997D02*
X14005Y227498D01*
Y222499D01*
X16504Y220000D01*
X26501D01*
X29000Y222499D01*
Y227498D01*
X26501Y229997D01*
X29000Y234995D02*
Y239993D01*
Y237494D01*
X14005D01*
X16504Y234995D01*
Y247491D02*
X14005Y249990D01*
Y254989D01*
X16504Y257488D01*
X26501D01*
X29000Y254989D01*
Y249990D01*
X26501Y247491D01*
X16504D01*
X45986Y303043D02*
X48485Y305542D01*
Y310541D01*
X45986Y313040D01*
X35989D01*
X33490Y310541D01*
Y305542D01*
X35989Y303043D01*
Y298045D02*
X33490Y295546D01*
Y290547D01*
X35989Y288048D01*
X45986D01*
X48485Y290547D01*
Y295546D01*
X45986Y298045D01*
X43487D01*
X40988Y295546D01*
Y288048D01*
X86997Y335996D02*
X84498Y338495D01*
X79499D01*
X77000Y335996D01*
Y325999D01*
X79499Y323500D01*
X84498D01*
X86997Y325999D01*
X91995Y335996D02*
X94494Y338495D01*
X99493D01*
X101992Y335996D01*
Y333497D01*
X99493Y330998D01*
X101992Y328498D01*
Y325999D01*
X99493Y323500D01*
X94494D01*
X91995Y325999D01*
Y328498D01*
X94494Y330998D01*
X91995Y333497D01*
Y335996D01*
X94494Y330998D02*
X99493D01*
X186497Y335496D02*
X183998Y337995D01*
X178999D01*
X176500Y335496D01*
Y325499D01*
X178999Y323000D01*
X183998D01*
X186497Y325499D01*
X191495Y337995D02*
X201492D01*
Y335496D01*
X191495Y325499D01*
Y323000D01*
X199747Y286246D02*
X197248Y288745D01*
X192249D01*
X189750Y286246D01*
Y276249D01*
X192249Y273750D01*
X197248D01*
X199747Y276249D01*
X214742Y288745D02*
X209743Y286246D01*
X204745Y281248D01*
Y276249D01*
X207244Y273750D01*
X212243D01*
X214742Y276249D01*
Y278748D01*
X212243Y281248D01*
X204745D01*
X119997Y146746D02*
X117498Y149245D01*
X112499D01*
X110000Y146746D01*
Y136749D01*
X112499Y134250D01*
X117498D01*
X119997Y136749D01*
X134992Y149245D02*
X124995D01*
Y141748D01*
X129993Y144247D01*
X132493D01*
X134992Y141748D01*
Y136749D01*
X132493Y134250D01*
X127494D01*
X124995Y136749D01*
X322504Y283997D02*
X320005Y281498D01*
Y276499D01*
X322504Y274000D01*
X332501D01*
X335000Y276499D01*
Y281498D01*
X332501Y283997D01*
X335000Y296493D02*
X320005D01*
X327502Y288995D01*
Y298992D01*
X240997Y190496D02*
X238498Y192995D01*
X233499D01*
X231000Y190496D01*
Y180499D01*
X233499Y178000D01*
X238498D01*
X240997Y180499D01*
X245995Y190496D02*
X248494Y192995D01*
X253493D01*
X255992Y190496D01*
Y187997D01*
X253493Y185498D01*
X250993D01*
X253493D01*
X255992Y182998D01*
Y180499D01*
X253493Y178000D01*
X248494D01*
X245995Y180499D01*
X227497Y151246D02*
X224998Y153745D01*
X219999D01*
X217500Y151246D01*
Y141249D01*
X219999Y138750D01*
X224998D01*
X227497Y141249D01*
X242492Y138750D02*
X232495D01*
X242492Y148747D01*
Y151246D01*
X239993Y153745D01*
X234994D01*
X232495Y151246D01*
X52247Y147246D02*
X49748Y149745D01*
X44749D01*
X42250Y147246D01*
Y137249D01*
X44749Y134750D01*
X49748D01*
X52247Y137249D01*
X57245Y134750D02*
X62243D01*
X59744D01*
Y149745D01*
X57245Y147246D01*
X15077Y149615D02*
X10078D01*
X12578D01*
Y137119D01*
X10078Y134620D01*
X7579D01*
X5080Y137119D01*
X20075Y134620D02*
X25073D01*
X22574D01*
Y149615D01*
X20075Y147116D01*
X373000Y168000D02*
Y182995D01*
X380498D01*
X382997Y180496D01*
Y175498D01*
X380498Y172998D01*
X373000D01*
X387995Y168000D02*
X392994D01*
X390494D01*
Y182995D01*
X387995Y180496D01*
X266000Y168000D02*
Y182995D01*
X273498D01*
X275997Y180496D01*
Y175498D01*
X273498Y172998D01*
X266000D01*
X290992Y168000D02*
X280995D01*
X290992Y177997D01*
Y180496D01*
X288493Y182995D01*
X283494D01*
X280995Y180496D01*
D34*
X357250Y264000D02*
Y274000D01*
X344750Y264000D02*
Y274000D01*
X364750Y379000D02*
Y389000D01*
X377250Y379000D02*
Y389000D01*
X304000Y325750D02*
X314000D01*
X304000Y338250D02*
X314000D01*
X27250Y295000D02*
Y305000D01*
X14750Y295000D02*
Y305000D01*
X138390Y37310D02*
Y128810D01*
Y-56190D02*
Y8310D01*
X6390Y-56190D02*
Y8560D01*
Y37310D02*
Y128810D01*
D35*
X160000Y461000D02*
Y476235D01*
X167617D01*
X170157Y473696D01*
Y468618D01*
X167617Y466078D01*
X160000D01*
X182853Y476235D02*
X177774D01*
X175235Y473696D01*
Y463539D01*
X177774Y461000D01*
X182853D01*
X185392Y463539D01*
Y473696D01*
X182853Y476235D01*
X190470D02*
X200627D01*
X195548D01*
Y461000D01*
X205705D02*
Y471157D01*
X210784Y476235D01*
X215862Y471157D01*
Y461000D01*
Y468618D01*
X205705D01*
X220940Y461000D02*
Y476235D01*
X228558D01*
X231097Y473696D01*
Y468618D01*
X228558Y466078D01*
X220940D01*
X226019D02*
X231097Y461000D01*
X236175Y476235D02*
Y461000D01*
X243793D01*
X246332Y463539D01*
Y473696D01*
X243793Y476235D01*
X236175D01*
X269000Y37235D02*
Y22000D01*
X276618D01*
X279157Y24539D01*
Y27078D01*
X276618Y29618D01*
X269000D01*
X276618D01*
X279157Y32157D01*
Y34696D01*
X276618Y37235D01*
X269000D01*
X284235Y22000D02*
Y32157D01*
X289313Y37235D01*
X294392Y32157D01*
Y22000D01*
Y29618D01*
X284235D01*
X299470Y37235D02*
X309627D01*
X304548D01*
Y22000D01*
X314705D02*
Y24539D01*
X317244D01*
Y22000D01*
X314705D01*
X339000D02*
Y37235D01*
X344078Y32157D01*
X349157Y37235D01*
Y22000D01*
X354235D02*
Y32157D01*
X359314Y37235D01*
X364392Y32157D01*
Y22000D01*
Y29618D01*
X354235D01*
X369470Y37235D02*
X374548D01*
X372009D01*
Y22000D01*
X369470D01*
X374548D01*
X382166D02*
Y37235D01*
X392323Y22000D01*
Y37235D01*
X272000Y10618D02*
X282157D01*
X302470D02*
X312627D01*
X307549Y15696D02*
Y5539D01*
X346000Y10618D02*
X356157D01*
X376470D02*
X386627D01*
X381549Y15696D02*
Y5539D01*
M02*
