%FSLAX44Y44*%
%MOMM*%
G71*
G01*
G75*
G04 Layer_Color=128*
%ADD10R,0.9000X0.8000*%
%ADD11R,0.8000X0.9000*%
%ADD12R,1.5000X0.8000*%
%ADD13R,0.8000X1.5000*%
%ADD14R,1.6800X1.5600*%
%ADD15R,0.7000X0.9500*%
%ADD16R,0.8000X0.8000*%
%ADD17R,0.8000X0.8000*%
%ADD18R,5.6000X5.6000*%
%ADD19R,2.0000X1.2000*%
%ADD20R,5.5000X2.0000*%
%ADD21R,0.8500X0.3000*%
%ADD22R,0.3000X0.8500*%
%ADD23R,1.1000X1.2500*%
%ADD24C,1.0000*%
%ADD25C,0.5080*%
%ADD26C,0.2540*%
%ADD27C,0.5000*%
%ADD28C,2.0000*%
%ADD29C,3.2500*%
%ADD30C,1.5000*%
%ADD31C,2.4000*%
%ADD32C,0.7000*%
%ADD33C,0.7100*%
%ADD34C,0.2000*%
%ADD35C,0.1000*%
%ADD36C,0.2500*%
%ADD37C,0.1800*%
%ADD38C,0.3000*%
%ADD39R,1.1032X1.0032*%
%ADD40R,1.0032X1.1032*%
%ADD41R,1.7032X1.0032*%
%ADD42R,1.0032X1.7032*%
%ADD43R,1.8832X1.7632*%
%ADD44R,0.9032X1.1532*%
%ADD45R,1.0032X1.0032*%
%ADD46R,1.0032X1.0032*%
%ADD47R,5.8032X5.8032*%
%ADD48R,2.2032X1.4032*%
%ADD49R,5.7032X2.2032*%
%ADD50R,1.0532X0.5032*%
%ADD51R,0.5032X1.0532*%
%ADD52R,1.3032X1.4532*%
%ADD53C,2.2032*%
%ADD54C,3.4532*%
%ADD55C,1.7032*%
%ADD56C,2.6032*%
%ADD57C,0.9032*%
%ADD58C,0.9132*%
%ADD59C,0.0847*%
%ADD60C,0.3810*%
%ADD61C,0.4064*%
D26*
X1266873Y200930D02*
Y216165D01*
X1274491D01*
X1277030Y213626D01*
Y208547D01*
X1274491Y206008D01*
X1266873D01*
X1271951D02*
X1277030Y200930D01*
X1284647D02*
X1289726D01*
X1292265Y203469D01*
Y208547D01*
X1289726Y211087D01*
X1284647D01*
X1282108Y208547D01*
Y203469D01*
X1284647Y200930D01*
X1297343Y211087D02*
Y203469D01*
X1299882Y200930D01*
X1307500D01*
Y211087D01*
X1312578Y200930D02*
Y211087D01*
X1320196D01*
X1322735Y208547D01*
Y200930D01*
X1337970Y216165D02*
Y200930D01*
X1330352D01*
X1327813Y203469D01*
Y208547D01*
X1330352Y211087D01*
X1337970D01*
X1266873Y162830D02*
Y178065D01*
X1274491D01*
X1277030Y175526D01*
Y170448D01*
X1274491Y167908D01*
X1266873D01*
X1271951D02*
X1277030Y162830D01*
X1284647D02*
X1289726D01*
X1292265Y165369D01*
Y170448D01*
X1289726Y172987D01*
X1284647D01*
X1282108Y170448D01*
Y165369D01*
X1284647Y162830D01*
X1297343Y172987D02*
Y165369D01*
X1299882Y162830D01*
X1307500D01*
Y172987D01*
X1312578Y162830D02*
Y172987D01*
X1320196D01*
X1322735Y170448D01*
Y162830D01*
X1337970Y178065D02*
Y162830D01*
X1330352D01*
X1327813Y165369D01*
Y170448D01*
X1330352Y172987D01*
X1337970D01*
X1266873Y124730D02*
Y139965D01*
X1274491D01*
X1277030Y137426D01*
Y132347D01*
X1274491Y129808D01*
X1266873D01*
X1271951D02*
X1277030Y124730D01*
X1284647D02*
X1289726D01*
X1292265Y127269D01*
Y132347D01*
X1289726Y134887D01*
X1284647D01*
X1282108Y132347D01*
Y127269D01*
X1284647Y124730D01*
X1297343Y134887D02*
Y127269D01*
X1299882Y124730D01*
X1307500D01*
Y134887D01*
X1312578Y124730D02*
Y134887D01*
X1320196D01*
X1322735Y132347D01*
Y124730D01*
X1337970Y139965D02*
Y124730D01*
X1330352D01*
X1327813Y127269D01*
Y132347D01*
X1330352Y134887D01*
X1337970D01*
X1266873Y86630D02*
Y101865D01*
X1274491D01*
X1277030Y99326D01*
Y94248D01*
X1274491Y91708D01*
X1266873D01*
X1271951D02*
X1277030Y86630D01*
X1284647D02*
X1289726D01*
X1292265Y89169D01*
Y94248D01*
X1289726Y96787D01*
X1284647D01*
X1282108Y94248D01*
Y89169D01*
X1284647Y86630D01*
X1297343Y96787D02*
Y89169D01*
X1299882Y86630D01*
X1307500D01*
Y96787D01*
X1312578Y86630D02*
Y96787D01*
X1320196D01*
X1322735Y94248D01*
Y86630D01*
X1337970Y101865D02*
Y86630D01*
X1330352D01*
X1327813Y89169D01*
Y94248D01*
X1330352Y96787D01*
X1337970D01*
X1266873Y48530D02*
Y63765D01*
X1274491D01*
X1277030Y61226D01*
Y56147D01*
X1274491Y53608D01*
X1266873D01*
X1271951D02*
X1277030Y48530D01*
X1284647D02*
X1289726D01*
X1292265Y51069D01*
Y56147D01*
X1289726Y58687D01*
X1284647D01*
X1282108Y56147D01*
Y51069D01*
X1284647Y48530D01*
X1297343Y58687D02*
Y51069D01*
X1299882Y48530D01*
X1307500D01*
Y58687D01*
X1312578Y48530D02*
Y58687D01*
X1320196D01*
X1322735Y56147D01*
Y48530D01*
X1337970Y63765D02*
Y48530D01*
X1330352D01*
X1327813Y51069D01*
Y56147D01*
X1330352Y58687D01*
X1337970D01*
X1138381Y200930D02*
Y216165D01*
X1148537Y200930D01*
Y216165D01*
X1153616Y200930D02*
Y216165D01*
X1161233D01*
X1163772Y213626D01*
Y208547D01*
X1161233Y206008D01*
X1153616D01*
X1168851Y216165D02*
X1179007D01*
X1173929D01*
Y200930D01*
X1184086Y216165D02*
Y200930D01*
Y208547D01*
X1194242D01*
Y216165D01*
Y200930D01*
X1138381Y162830D02*
Y178065D01*
X1145998D01*
X1148537Y175526D01*
Y170448D01*
X1145998Y167908D01*
X1138381D01*
X1153616Y178065D02*
X1163772D01*
X1158694D01*
Y162830D01*
X1168851Y178065D02*
Y162830D01*
Y170448D01*
X1179007D01*
Y178065D01*
Y162830D01*
X1138381Y124730D02*
Y139965D01*
X1145998D01*
X1148537Y137426D01*
Y132347D01*
X1145998Y129808D01*
X1138381D01*
X1153616Y139965D02*
X1163772D01*
X1158694D01*
Y124730D01*
X1168851Y139965D02*
Y124730D01*
Y132347D01*
X1179007D01*
Y139965D01*
Y124730D01*
X1138381Y86630D02*
Y101865D01*
X1145998D01*
X1148537Y99326D01*
Y94248D01*
X1145998Y91708D01*
X1138381D01*
X1153616Y101865D02*
X1163772D01*
X1158694D01*
Y86630D01*
X1168851Y101865D02*
Y86630D01*
Y94248D01*
X1179007D01*
Y101865D01*
Y86630D01*
X1138381Y48530D02*
Y63765D01*
X1145998D01*
X1148537Y61226D01*
Y56147D01*
X1145998Y53608D01*
X1138381D01*
X1153616Y63765D02*
X1163772D01*
X1158694D01*
Y48530D01*
X1168851Y63765D02*
Y48530D01*
Y56147D01*
X1179007D01*
Y63765D01*
Y48530D01*
X796597Y213626D02*
X799136Y216165D01*
X804215D01*
X806754Y213626D01*
Y211087D01*
X804215Y208547D01*
X801675D01*
X804215D01*
X806754Y206008D01*
Y203469D01*
X804215Y200930D01*
X799136D01*
X796597Y203469D01*
X811832Y200930D02*
Y203469D01*
X814371D01*
Y200930D01*
X811832D01*
X824528Y213626D02*
X827067Y216165D01*
X832146D01*
X834685Y213626D01*
Y211087D01*
X832146Y208547D01*
X829606D01*
X832146D01*
X834685Y206008D01*
Y203469D01*
X832146Y200930D01*
X827067D01*
X824528Y203469D01*
X839763Y213626D02*
X842302Y216165D01*
X847381D01*
X849920Y213626D01*
Y203469D01*
X847381Y200930D01*
X842302D01*
X839763Y203469D01*
Y213626D01*
X854998D02*
X857537Y216165D01*
X862616D01*
X865155Y213626D01*
Y203469D01*
X862616Y200930D01*
X857537D01*
X854998Y203469D01*
Y213626D01*
X870233Y200930D02*
Y211087D01*
X872772D01*
X875312Y208547D01*
Y200930D01*
Y208547D01*
X877851Y211087D01*
X880390Y208547D01*
Y200930D01*
X885468D02*
Y211087D01*
X888008D01*
X890547Y208547D01*
Y200930D01*
Y208547D01*
X893086Y211087D01*
X895625Y208547D01*
Y200930D01*
X921017D02*
X915938Y206008D01*
Y211087D01*
X921017Y216165D01*
X928634Y200930D02*
X933713D01*
X931174D01*
Y216165D01*
X928634Y213626D01*
X951487Y200930D02*
X941330D01*
X951487Y211087D01*
Y213626D01*
X948948Y216165D01*
X943869D01*
X941330Y213626D01*
X956565Y203469D02*
X959105Y200930D01*
X964183D01*
X966722Y203469D01*
Y213626D01*
X964183Y216165D01*
X959105D01*
X956565Y213626D01*
Y211087D01*
X959105Y208547D01*
X966722D01*
X971800Y200930D02*
Y203469D01*
X974340D01*
Y200930D01*
X971800D01*
X984496Y203469D02*
X987036Y200930D01*
X992114D01*
X994653Y203469D01*
Y213626D01*
X992114Y216165D01*
X987036D01*
X984496Y213626D01*
Y211087D01*
X987036Y208547D01*
X994653D01*
X1009888Y200930D02*
X999731D01*
X1009888Y211087D01*
Y213626D01*
X1007349Y216165D01*
X1002271D01*
X999731Y213626D01*
X1014966Y200930D02*
Y211087D01*
X1017506D01*
X1020045Y208547D01*
Y200930D01*
Y208547D01*
X1022584Y211087D01*
X1025123Y208547D01*
Y200930D01*
X1030201D02*
X1035280D01*
X1032741D01*
Y211087D01*
X1030201D01*
X1042897Y200930D02*
X1047976D01*
X1045437D01*
Y216165D01*
X1042897D01*
X1055593Y200930D02*
X1060672Y206008D01*
Y211087D01*
X1055593Y216165D01*
X796597Y162830D02*
X801675D01*
X799136D01*
Y178065D01*
X796597Y175526D01*
X809293Y162830D02*
Y165369D01*
X811832D01*
Y162830D01*
X809293D01*
X832146D02*
X821989D01*
X832146Y172987D01*
Y175526D01*
X829606Y178065D01*
X824528D01*
X821989Y175526D01*
X837224D02*
X839763Y178065D01*
X844842D01*
X847381Y175526D01*
Y165369D01*
X844842Y162830D01*
X839763D01*
X837224Y165369D01*
Y175526D01*
X852459D02*
X854998Y178065D01*
X860077D01*
X862616Y175526D01*
Y165369D01*
X860077Y162830D01*
X854998D01*
X852459Y165369D01*
Y175526D01*
X867694Y162830D02*
Y172987D01*
X870233D01*
X872772Y170448D01*
Y162830D01*
Y170448D01*
X875312Y172987D01*
X877851Y170448D01*
Y162830D01*
X882929D02*
Y172987D01*
X885468D01*
X888008Y170448D01*
Y162830D01*
Y170448D01*
X890547Y172987D01*
X893086Y170448D01*
Y162830D01*
X918478D02*
X913399Y167908D01*
Y172987D01*
X918478Y178065D01*
X933713Y162830D02*
Y178065D01*
X926095Y170448D01*
X936252D01*
X941330Y178065D02*
X951487D01*
Y175526D01*
X941330Y165369D01*
Y162830D01*
X956565D02*
Y165369D01*
X959105D01*
Y162830D01*
X956565D01*
X979418D02*
X969261D01*
X979418Y172987D01*
Y175526D01*
X976879Y178065D01*
X971800D01*
X969261Y175526D01*
X992114Y162830D02*
Y178065D01*
X984496Y170448D01*
X994653D01*
X999731Y162830D02*
Y172987D01*
X1002271D01*
X1004810Y170448D01*
Y162830D01*
Y170448D01*
X1007349Y172987D01*
X1009888Y170448D01*
Y162830D01*
X1014966D02*
X1020045D01*
X1017506D01*
Y172987D01*
X1014966D01*
X1027662Y162830D02*
X1032741D01*
X1030201D01*
Y178065D01*
X1027662D01*
X1040358Y162830D02*
X1045436Y167908D01*
Y172987D01*
X1040358Y178065D01*
X796597Y124730D02*
X801675D01*
X799136D01*
Y139965D01*
X796597Y137426D01*
X809293Y124730D02*
Y127269D01*
X811832D01*
Y124730D01*
X809293D01*
X821989Y137426D02*
X824528Y139965D01*
X829606D01*
X832146Y137426D01*
Y127269D01*
X829606Y124730D01*
X824528D01*
X821989Y127269D01*
Y137426D01*
X837224D02*
X839763Y139965D01*
X844842D01*
X847381Y137426D01*
Y127269D01*
X844842Y124730D01*
X839763D01*
X837224Y127269D01*
Y137426D01*
X852459D02*
X854998Y139965D01*
X860077D01*
X862616Y137426D01*
Y127269D01*
X860077Y124730D01*
X854998D01*
X852459Y127269D01*
Y137426D01*
X867694Y124730D02*
Y134887D01*
X870233D01*
X872772Y132347D01*
Y124730D01*
Y132347D01*
X875312Y134887D01*
X877851Y132347D01*
Y124730D01*
X882929D02*
Y134887D01*
X885468D01*
X888008Y132347D01*
Y124730D01*
Y132347D01*
X890547Y134887D01*
X893086Y132347D01*
Y124730D01*
X918478D02*
X913399Y129808D01*
Y134887D01*
X918478Y139965D01*
X926095Y137426D02*
X928634Y139965D01*
X933713D01*
X936252Y137426D01*
Y134887D01*
X933713Y132347D01*
X931173D01*
X933713D01*
X936252Y129808D01*
Y127269D01*
X933713Y124730D01*
X928634D01*
X926095Y127269D01*
X941330D02*
X943869Y124730D01*
X948948D01*
X951487Y127269D01*
Y137426D01*
X948948Y139965D01*
X943869D01*
X941330Y137426D01*
Y134887D01*
X943869Y132347D01*
X951487D01*
X956565Y124730D02*
Y127269D01*
X959105D01*
Y124730D01*
X956565D01*
X969261Y137426D02*
X971800Y139965D01*
X976879D01*
X979418Y137426D01*
Y134887D01*
X976879Y132347D01*
X974340D01*
X976879D01*
X979418Y129808D01*
Y127269D01*
X976879Y124730D01*
X971800D01*
X969261Y127269D01*
X984496Y139965D02*
X994653D01*
Y137426D01*
X984496Y127269D01*
Y124730D01*
X999731D02*
Y134887D01*
X1002271D01*
X1004810Y132347D01*
Y124730D01*
Y132347D01*
X1007349Y134887D01*
X1009888Y132347D01*
Y124730D01*
X1014966D02*
X1020045D01*
X1017506D01*
Y134887D01*
X1014966D01*
X1027662Y124730D02*
X1032741D01*
X1030201D01*
Y139965D01*
X1027662D01*
X1040358Y124730D02*
X1045436Y129808D01*
Y134887D01*
X1040358Y139965D01*
X796597Y99326D02*
X799136Y101865D01*
X804215D01*
X806754Y99326D01*
Y89169D01*
X804215Y86630D01*
X799136D01*
X796597Y89169D01*
Y99326D01*
X811832Y86630D02*
Y89169D01*
X814371D01*
Y86630D01*
X811832D01*
X824528Y89169D02*
X827067Y86630D01*
X832146D01*
X834685Y89169D01*
Y99326D01*
X832146Y101865D01*
X827067D01*
X824528Y99326D01*
Y96787D01*
X827067Y94248D01*
X834685D01*
X839763Y99326D02*
X842302Y101865D01*
X847381D01*
X849920Y99326D01*
Y89169D01*
X847381Y86630D01*
X842302D01*
X839763Y89169D01*
Y99326D01*
X854998D02*
X857537Y101865D01*
X862616D01*
X865155Y99326D01*
Y89169D01*
X862616Y86630D01*
X857537D01*
X854998Y89169D01*
Y99326D01*
X870233Y86630D02*
Y96787D01*
X872772D01*
X875312Y94248D01*
Y86630D01*
Y94248D01*
X877851Y96787D01*
X880390Y94248D01*
Y86630D01*
X885468D02*
Y96787D01*
X888008D01*
X890547Y94248D01*
Y86630D01*
Y94248D01*
X893086Y96787D01*
X895625Y94248D01*
Y86630D01*
X921017D02*
X915938Y91708D01*
Y96787D01*
X921017Y101865D01*
X928634Y99326D02*
X931174Y101865D01*
X936252D01*
X938791Y99326D01*
Y96787D01*
X936252Y94248D01*
X933713D01*
X936252D01*
X938791Y91708D01*
Y89169D01*
X936252Y86630D01*
X931174D01*
X928634Y89169D01*
X954026Y101865D02*
X943869D01*
Y94248D01*
X948948Y96787D01*
X951487D01*
X954026Y94248D01*
Y89169D01*
X951487Y86630D01*
X946409D01*
X943869Y89169D01*
X959105Y86630D02*
Y89169D01*
X961644D01*
Y86630D01*
X959105D01*
X979418D02*
Y101865D01*
X971800Y94248D01*
X981957D01*
X987036Y99326D02*
X989575Y101865D01*
X994653D01*
X997192Y99326D01*
Y96787D01*
X994653Y94248D01*
X992114D01*
X994653D01*
X997192Y91708D01*
Y89169D01*
X994653Y86630D01*
X989575D01*
X987036Y89169D01*
X1002271Y86630D02*
Y96787D01*
X1004810D01*
X1007349Y94248D01*
Y86630D01*
Y94248D01*
X1009888Y96787D01*
X1012427Y94248D01*
Y86630D01*
X1017506D02*
X1022584D01*
X1020045D01*
Y96787D01*
X1017506D01*
X1030201Y86630D02*
X1035280D01*
X1032741D01*
Y101865D01*
X1030201D01*
X1042897Y86630D02*
X1047976Y91708D01*
Y96787D01*
X1042897Y101865D01*
X796597Y61226D02*
X799136Y63765D01*
X804215D01*
X806754Y61226D01*
Y51069D01*
X804215Y48530D01*
X799136D01*
X796597Y51069D01*
Y61226D01*
X811832Y48530D02*
Y51069D01*
X814371D01*
Y48530D01*
X811832D01*
X824528Y61226D02*
X827067Y63765D01*
X832146D01*
X834685Y61226D01*
Y58687D01*
X832146Y56147D01*
X829606D01*
X832146D01*
X834685Y53608D01*
Y51069D01*
X832146Y48530D01*
X827067D01*
X824528Y51069D01*
X839763Y61226D02*
X842302Y63765D01*
X847381D01*
X849920Y61226D01*
Y51069D01*
X847381Y48530D01*
X842302D01*
X839763Y51069D01*
Y61226D01*
X854998D02*
X857537Y63765D01*
X862616D01*
X865155Y61226D01*
Y51069D01*
X862616Y48530D01*
X857537D01*
X854998Y51069D01*
Y61226D01*
X870233Y48530D02*
Y58687D01*
X872772D01*
X875312Y56147D01*
Y48530D01*
Y56147D01*
X877851Y58687D01*
X880390Y56147D01*
Y48530D01*
X885468D02*
Y58687D01*
X888008D01*
X890547Y56147D01*
Y48530D01*
Y56147D01*
X893086Y58687D01*
X895625Y56147D01*
Y48530D01*
X921017D02*
X915938Y53608D01*
Y58687D01*
X921017Y63765D01*
X928634Y48530D02*
X933713D01*
X931174D01*
Y63765D01*
X928634Y61226D01*
X941330Y48530D02*
X946409D01*
X943869D01*
Y63765D01*
X941330Y61226D01*
X954026Y48530D02*
Y51069D01*
X956565D01*
Y48530D01*
X954026D01*
X966722Y61226D02*
X969261Y63765D01*
X974340D01*
X976879Y61226D01*
Y58687D01*
X974340Y56147D01*
X976879Y53608D01*
Y51069D01*
X974340Y48530D01*
X969261D01*
X966722Y51069D01*
Y53608D01*
X969261Y56147D01*
X966722Y58687D01*
Y61226D01*
X969261Y56147D02*
X974340D01*
X981957Y48530D02*
X987035D01*
X984496D01*
Y63765D01*
X981957Y61226D01*
X994653Y48530D02*
Y58687D01*
X997192D01*
X999731Y56147D01*
Y48530D01*
Y56147D01*
X1002271Y58687D01*
X1004810Y56147D01*
Y48530D01*
X1009888D02*
X1014966D01*
X1012427D01*
Y58687D01*
X1009888D01*
X1022584Y48530D02*
X1027662D01*
X1025123D01*
Y63765D01*
X1022584D01*
X1035280Y48530D02*
X1040358Y53608D01*
Y58687D01*
X1035280Y63765D01*
X619352Y23126D02*
X621892Y25665D01*
X626970D01*
X629509Y23126D01*
Y20587D01*
X626970Y18047D01*
X624431D01*
X626970D01*
X629509Y15508D01*
Y12969D01*
X626970Y10430D01*
X621892D01*
X619352Y12969D01*
X644744Y25665D02*
X634588D01*
Y18047D01*
X639666Y20587D01*
X642205D01*
X644744Y18047D01*
Y12969D01*
X642205Y10430D01*
X637127D01*
X634588Y12969D01*
X665058Y25665D02*
X675214D01*
X670136D01*
Y10430D01*
X682832D02*
X687910D01*
X690449Y12969D01*
Y18047D01*
X687910Y20587D01*
X682832D01*
X680293Y18047D01*
Y12969D01*
X682832Y10430D01*
X698067Y23126D02*
Y20587D01*
X695528D01*
X700606D01*
X698067D01*
Y12969D01*
X700606Y10430D01*
X710763Y20587D02*
X715841D01*
X718380Y18047D01*
Y10430D01*
X710763D01*
X708224Y12969D01*
X710763Y15508D01*
X718380D01*
X723459Y10430D02*
X728537D01*
X725998D01*
Y25665D01*
X723459D01*
X629509Y200930D02*
X619352D01*
X629509Y211087D01*
Y213626D01*
X626970Y216165D01*
X621892D01*
X619352Y213626D01*
Y175526D02*
X621892Y178065D01*
X626970D01*
X629509Y175526D01*
Y172987D01*
X626970Y170448D01*
X624431D01*
X626970D01*
X629509Y167908D01*
Y165369D01*
X626970Y162830D01*
X621892D01*
X619352Y165369D01*
X626970Y124730D02*
Y139965D01*
X619352Y132347D01*
X629509D01*
Y101865D02*
X624431Y99326D01*
X619352Y94248D01*
Y89169D01*
X621892Y86630D01*
X626970D01*
X629509Y89169D01*
Y91708D01*
X626970Y94248D01*
X619352D01*
X629509Y48530D02*
X619352D01*
X629509Y58687D01*
Y61226D01*
X626970Y63765D01*
X621892D01*
X619352Y61226D01*
X634588D02*
X637127Y63765D01*
X642205D01*
X644744Y61226D01*
Y51069D01*
X642205Y48530D01*
X637127D01*
X634588Y51069D01*
Y61226D01*
D59*
X498004Y131080D02*
G03*
X498004Y131080I-6350J0D01*
G01*
X308983Y90250D02*
G03*
X308983Y90250I-4233J0D01*
G01*
X273983Y140250D02*
G03*
X273983Y140250I-4233J0D01*
G01*
X356733Y141000D02*
G03*
X356733Y141000I-4233J0D01*
G01*
X391733Y91000D02*
G03*
X391733Y91000I-4233J0D01*
G01*
X485304Y204105D02*
X488479D01*
X485304D02*
Y210455D01*
X488479D01*
Y213630D01*
X494829D01*
Y210455D02*
Y213630D01*
Y210455D02*
X498004D01*
Y204105D02*
Y210455D01*
X494829Y204105D02*
X498004D01*
X494829Y200930D02*
Y204105D01*
X488479Y200930D02*
X494829D01*
X488479D02*
Y204105D01*
X491654Y162830D02*
X498004Y175530D01*
X485304D02*
X498004D01*
X485304D02*
X491654Y162830D01*
X485304Y86630D02*
X498004D01*
Y99330D01*
X485304D02*
X498004D01*
X485304Y86630D02*
Y99330D01*
Y48530D02*
X491654Y51705D01*
X498004Y48530D01*
X494829Y54880D02*
X498004Y48530D01*
X494829Y54880D02*
X498004Y61230D01*
X491654Y58055D02*
X498004Y61230D01*
X485304D02*
X491654Y58055D01*
X485304Y61230D02*
X488479Y54880D01*
X485304Y48530D02*
X488479Y54880D01*
X215517Y214767D02*
X219750Y216883D01*
X223983Y214767D01*
X221867Y219000D02*
X223983Y214767D01*
X221867Y219000D02*
X223983Y223233D01*
X219750Y221117D02*
X223983Y223233D01*
X215517D02*
X219750Y221117D01*
X215517Y223233D02*
X217633Y219000D01*
X215517Y214767D02*
X217633Y219000D01*
X226517Y225517D02*
X230750Y227633D01*
X234983Y225517D01*
X232867Y229750D02*
X234983Y225517D01*
X232867Y229750D02*
X234983Y233983D01*
X230750Y231867D02*
X234983Y233983D01*
X226517D02*
X230750Y231867D01*
X226517Y233983D02*
X228633Y229750D01*
X226517Y225517D02*
X228633Y229750D01*
X129267Y148767D02*
X133500Y150883D01*
X137733Y148767D01*
X135617Y153000D02*
X137733Y148767D01*
X135617Y153000D02*
X137733Y157233D01*
X133500Y155117D02*
X137733Y157233D01*
X129267D02*
X133500Y155117D01*
X129267Y157233D02*
X131383Y153000D01*
X129267Y148767D02*
X131383Y153000D01*
X200767Y176267D02*
X205000Y178383D01*
X209233Y176267D01*
X207117Y180500D02*
X209233Y176267D01*
X207117Y180500D02*
X209233Y184733D01*
X205000Y182617D02*
X209233Y184733D01*
X200767D02*
X205000Y182617D01*
X200767Y184733D02*
X202883Y180500D01*
X200767Y176267D02*
X202883Y180500D01*
X14767Y291517D02*
X19000Y293633D01*
X23233Y291517D01*
X21117Y295750D02*
X23233Y291517D01*
X21117Y295750D02*
X23233Y299983D01*
X19000Y297867D02*
X23233Y299983D01*
X14767D02*
X19000Y297867D01*
X14767Y299983D02*
X16883Y295750D01*
X14767Y291517D02*
X16883Y295750D01*
X51269Y218778D02*
X55503Y220894D01*
X59736Y218778D01*
X57619Y223011D02*
X59736Y218778D01*
X57619Y223011D02*
X59736Y227244D01*
X55503Y225128D02*
X59736Y227244D01*
X51269D02*
X55503Y225128D01*
X51269Y227244D02*
X53386Y223011D01*
X51269Y218778D02*
X53386Y223011D01*
X128267Y166017D02*
X132500Y168133D01*
X136733Y166017D01*
X134617Y170250D02*
X136733Y166017D01*
X134617Y170250D02*
X136733Y174483D01*
X132500Y172367D02*
X136733Y174483D01*
X128267D02*
X132500Y172367D01*
X128267Y174483D02*
X130383Y170250D01*
X128267Y166017D02*
X130383Y170250D01*
X91017Y155267D02*
X95250Y157383D01*
X99483Y155267D01*
X97367Y159500D02*
X99483Y155267D01*
X97367Y159500D02*
X99483Y163733D01*
X95250Y161617D02*
X99483Y163733D01*
X91017D02*
X95250Y161617D01*
X91017Y163733D02*
X93133Y159500D01*
X91017Y155267D02*
X93133Y159500D01*
X306017Y557767D02*
X310250Y559883D01*
X314483Y557767D01*
X312367Y562000D02*
X314483Y557767D01*
X312367Y562000D02*
X314483Y566233D01*
X310250Y564117D02*
X314483Y566233D01*
X306017D02*
X310250Y564117D01*
X306017Y566233D02*
X308133Y562000D01*
X306017Y557767D02*
X308133Y562000D01*
X363517Y571267D02*
X367750Y573383D01*
X371983Y571267D01*
X369867Y575500D02*
X371983Y571267D01*
X369867Y575500D02*
X371983Y579733D01*
X367750Y577617D02*
X371983Y579733D01*
X363517D02*
X367750Y577617D01*
X363517Y579733D02*
X365633Y575500D01*
X363517Y571267D02*
X365633Y575500D01*
X72267Y557517D02*
X76500Y559633D01*
X80733Y557517D01*
X78617Y561750D02*
X80733Y557517D01*
X78617Y561750D02*
X80733Y565983D01*
X76500Y563867D02*
X80733Y565983D01*
X72267D02*
X76500Y563867D01*
X72267Y565983D02*
X74383Y561750D01*
X72267Y557517D02*
X74383Y561750D01*
X35017Y573017D02*
X39250Y575133D01*
X43483Y573017D01*
X41367Y577250D02*
X43483Y573017D01*
X41367Y577250D02*
X43483Y581483D01*
X39250Y579367D02*
X43483Y581483D01*
X35017D02*
X39250Y579367D01*
X35017Y581483D02*
X37133Y577250D01*
X35017Y573017D02*
X37133Y577250D01*
X365267Y293267D02*
X369500Y295383D01*
X373733Y293267D01*
X371617Y297500D02*
X373733Y293267D01*
X371617Y297500D02*
X373733Y301733D01*
X369500Y299617D02*
X373733Y301733D01*
X365267D02*
X369500Y299617D01*
X365267Y301733D02*
X367383Y297500D01*
X365267Y293267D02*
X367383Y297500D01*
X383767Y366517D02*
X388000Y368633D01*
X392233Y366517D01*
X390117Y370750D02*
X392233Y366517D01*
X390117Y370750D02*
X392233Y374983D01*
X388000Y372867D02*
X392233Y374983D01*
X383767D02*
X388000Y372867D01*
X383767Y374983D02*
X385883Y370750D01*
X383767Y366517D02*
X385883Y370750D01*
X37267Y277267D02*
X41500Y279383D01*
X45733Y277267D01*
X43617Y281500D02*
X45733Y277267D01*
X43617Y281500D02*
X45733Y285733D01*
X41500Y283617D02*
X45733Y285733D01*
X37267D02*
X41500Y283617D01*
X37267Y285733D02*
X39383Y281500D01*
X37267Y277267D02*
X39383Y281500D01*
X13267Y232267D02*
X17500Y234383D01*
X21733Y232267D01*
X19617Y236500D02*
X21733Y232267D01*
X19617Y236500D02*
X21733Y240733D01*
X17500Y238617D02*
X21733Y240733D01*
X13267D02*
X17500Y238617D01*
X13267Y240733D02*
X15383Y236500D01*
X13267Y232267D02*
X15383Y236500D01*
X224017Y280767D02*
X228250Y282883D01*
X232483Y280767D01*
X230367Y285000D02*
X232483Y280767D01*
X230367Y285000D02*
X232483Y289233D01*
X228250Y287117D02*
X232483Y289233D01*
X224017D02*
X228250Y287117D01*
X224017Y289233D02*
X226133Y285000D01*
X224017Y280767D02*
X226133Y285000D01*
X224017Y268517D02*
X228250Y270633D01*
X232483Y268517D01*
X230367Y272750D02*
X232483Y268517D01*
X230367Y272750D02*
X232483Y276983D01*
X228250Y274867D02*
X232483Y276983D01*
X224017D02*
X228250Y274867D01*
X224017Y276983D02*
X226133Y272750D01*
X224017Y268517D02*
X226133Y272750D01*
X56017Y334517D02*
X60250Y336633D01*
X64483Y334517D01*
X62367Y338750D02*
X64483Y334517D01*
X62367Y338750D02*
X64483Y342983D01*
X60250Y340867D02*
X64483Y342983D01*
X56017D02*
X60250Y340867D01*
X56017Y342983D02*
X58133Y338750D01*
X56017Y334517D02*
X58133Y338750D01*
X136017Y335017D02*
X140250Y337133D01*
X144483Y335017D01*
X142367Y339250D02*
X144483Y335017D01*
X142367Y339250D02*
X144483Y343483D01*
X140250Y341367D02*
X144483Y343483D01*
X136017D02*
X140250Y341367D01*
X136017Y343483D02*
X138133Y339250D01*
X136017Y335017D02*
X138133Y339250D01*
X251930Y536787D02*
X256163Y545253D01*
X247697D02*
X256163D01*
X247697D02*
X251930Y536787D01*
X201930D02*
X206163Y545253D01*
X197697D02*
X206163D01*
X197697D02*
X201930Y536787D01*
X151930D02*
X156163Y545253D01*
X147697D02*
X156163D01*
X147697D02*
X151930Y536787D01*
X99957Y82177D02*
X108423D01*
Y90643D01*
X99957D02*
X108423D01*
X99957Y82177D02*
Y90643D01*
X87257Y107577D02*
X95723D01*
Y116043D01*
X87257D02*
X95723D01*
X87257Y107577D02*
Y116043D01*
X36457Y107577D02*
X44923D01*
Y116043D01*
X36457D02*
X44923D01*
X36457Y107577D02*
Y116043D01*
X49157Y82177D02*
X57623D01*
Y90643D01*
X49157D02*
X57623D01*
X49157Y82177D02*
Y90643D01*
X74557Y82177D02*
X83023D01*
Y90643D01*
X74557D02*
X83023D01*
X74557Y82177D02*
Y90643D01*
X61857Y107577D02*
X70323D01*
Y116043D01*
X61857D02*
X70323D01*
X61857Y107577D02*
Y116043D01*
X17357Y20693D02*
X19473D01*
X17357D02*
Y24927D01*
X19473D01*
Y27043D01*
X23707D01*
Y24927D02*
Y27043D01*
Y24927D02*
X25823D01*
Y20693D02*
Y24927D01*
X23707Y20693D02*
X25823D01*
X23707Y18577D02*
Y20693D01*
X19473Y18577D02*
X23707D01*
X19473D02*
Y20693D01*
X118957D02*
X121073D01*
X118957D02*
Y24927D01*
X121073D01*
Y27043D01*
X125307D01*
Y24927D02*
Y27043D01*
Y24927D02*
X127423D01*
Y20693D02*
Y24927D01*
X125307Y20693D02*
X127423D01*
X125307Y18577D02*
Y20693D01*
X121073Y18577D02*
X125307D01*
X121073D02*
Y20693D01*
D60*
X468000Y227600D02*
X1453259D01*
X468000Y37100D02*
X1453259D01*
X468000Y-1000D02*
X1453259D01*
Y265700D01*
X468000D02*
X1453259D01*
X468000Y-1000D02*
Y265700D01*
X1255443Y-1000D02*
Y265700D01*
X1126951Y-1000D02*
Y265700D01*
X785167Y-1000D02*
Y265700D01*
X607922Y-1000D02*
Y265700D01*
D61*
X1266873Y257312D02*
Y239030D01*
Y248171D01*
X1279061D01*
Y257312D01*
Y239030D01*
X1288202D02*
X1294296D01*
X1297343Y242077D01*
Y248171D01*
X1294296Y251218D01*
X1288202D01*
X1285155Y248171D01*
Y242077D01*
X1288202Y239030D01*
X1303437D02*
X1309531D01*
X1306484D01*
Y257312D01*
X1303437D01*
X1327813Y239030D02*
X1321719D01*
X1318672Y242077D01*
Y248171D01*
X1321719Y251218D01*
X1327813D01*
X1330860Y248171D01*
Y245124D01*
X1318672D01*
X1355236Y257312D02*
X1367424D01*
X1361330D01*
Y239030D01*
X1373518Y251218D02*
Y242077D01*
X1376565Y239030D01*
X1385706D01*
Y235983D01*
X1382659Y232936D01*
X1379612D01*
X1385706Y239030D02*
Y251218D01*
X1391801Y232936D02*
Y251218D01*
X1400942D01*
X1403989Y248171D01*
Y242077D01*
X1400942Y239030D01*
X1391801D01*
X1419224D02*
X1413130D01*
X1410083Y242077D01*
Y248171D01*
X1413130Y251218D01*
X1419224D01*
X1422271Y248171D01*
Y245124D01*
X1410083D01*
X1138381Y239030D02*
Y257312D01*
X1147522D01*
X1150569Y254265D01*
Y248171D01*
X1147522Y245124D01*
X1138381D01*
X1156663Y239030D02*
X1162757D01*
X1159710D01*
Y257312D01*
X1156663D01*
X1174945Y251218D02*
X1181039D01*
X1184086Y248171D01*
Y239030D01*
X1174945D01*
X1171898Y242077D01*
X1174945Y245124D01*
X1184086D01*
X1193227Y254265D02*
Y251218D01*
X1190180D01*
X1196274D01*
X1193227D01*
Y242077D01*
X1196274Y239030D01*
X1214556D02*
X1208462D01*
X1205415Y242077D01*
Y248171D01*
X1208462Y251218D01*
X1214556D01*
X1217603Y248171D01*
Y245124D01*
X1205415D01*
X1235885Y257312D02*
Y239030D01*
X1226744D01*
X1223697Y242077D01*
Y248171D01*
X1226744Y251218D01*
X1235885D01*
X808785Y257312D02*
X796597D01*
Y248171D01*
X802691D01*
X796597D01*
Y239030D01*
X814879D02*
X820973D01*
X817926D01*
Y251218D01*
X814879D01*
X830114Y239030D02*
Y251218D01*
X839255D01*
X842302Y248171D01*
Y239030D01*
X848396D02*
X854490D01*
X851443D01*
Y251218D01*
X848396D01*
X863631Y239030D02*
X872772D01*
X875819Y242077D01*
X872772Y245124D01*
X866678D01*
X863631Y248171D01*
X866678Y251218D01*
X875819D01*
X881914Y257312D02*
Y239030D01*
Y248171D01*
X884960Y251218D01*
X891055D01*
X894101Y248171D01*
Y239030D01*
X909337D02*
X903243D01*
X900196Y242077D01*
Y248171D01*
X903243Y251218D01*
X909337D01*
X912384Y248171D01*
Y245124D01*
X900196D01*
X930666Y257312D02*
Y239030D01*
X921525D01*
X918478Y242077D01*
Y248171D01*
X921525Y251218D01*
X930666D01*
X955042Y257312D02*
Y239030D01*
Y248171D01*
X967230D01*
Y257312D01*
Y239030D01*
X976371D02*
X982465D01*
X985512Y242077D01*
Y248171D01*
X982465Y251218D01*
X976371D01*
X973324Y248171D01*
Y242077D01*
X976371Y239030D01*
X991606D02*
X997700D01*
X994653D01*
Y257312D01*
X991606D01*
X1015982Y239030D02*
X1009888D01*
X1006841Y242077D01*
Y248171D01*
X1009888Y251218D01*
X1015982D01*
X1019029Y248171D01*
Y245124D01*
X1006841D01*
X1055593Y254265D02*
X1052546Y257312D01*
X1046452D01*
X1043405Y254265D01*
Y251218D01*
X1046452Y248171D01*
X1052546D01*
X1055593Y245124D01*
Y242077D01*
X1052546Y239030D01*
X1046452D01*
X1043405Y242077D01*
X1061687Y239030D02*
X1067781D01*
X1064734D01*
Y251218D01*
X1061687D01*
X1076922D02*
X1089110D01*
X1076922Y239030D01*
X1089110D01*
X1104345D02*
X1098251D01*
X1095204Y242077D01*
Y248171D01*
X1098251Y251218D01*
X1104345D01*
X1107393Y248171D01*
Y245124D01*
X1095204D01*
X619352Y257312D02*
Y239030D01*
Y248171D01*
X631540D01*
Y257312D01*
Y239030D01*
X637635D02*
X643728D01*
X640682D01*
Y251218D01*
X637635D01*
X655917Y254265D02*
Y251218D01*
X652870D01*
X658964D01*
X655917D01*
Y242077D01*
X658964Y239030D01*
X698575Y254265D02*
X695528Y257312D01*
X689434D01*
X686387Y254265D01*
Y242077D01*
X689434Y239030D01*
X695528D01*
X698575Y242077D01*
X707716Y239030D02*
X713810D01*
X716857Y242077D01*
Y248171D01*
X713810Y251218D01*
X707716D01*
X704669Y248171D01*
Y242077D01*
X707716Y239030D01*
X722951Y251218D02*
Y242077D01*
X725998Y239030D01*
X735139D01*
Y251218D01*
X741233Y239030D02*
Y251218D01*
X750374D01*
X753421Y248171D01*
Y239030D01*
X762562Y254265D02*
Y251218D01*
X759515D01*
X765609D01*
X762562D01*
Y242077D01*
X765609Y239030D01*
X503048Y254265D02*
X500001Y257312D01*
X493907D01*
X490860Y254265D01*
Y251218D01*
X493907Y248171D01*
X500001D01*
X503048Y245124D01*
Y242077D01*
X500001Y239030D01*
X493907D01*
X490860Y242077D01*
X509142Y251218D02*
Y242077D01*
X512189Y239030D01*
X521330D01*
Y235983D01*
X518283Y232936D01*
X515236D01*
X521330Y239030D02*
Y251218D01*
X527424Y239030D02*
Y251218D01*
X530471D01*
X533518Y248171D01*
Y239030D01*
Y248171D01*
X536565Y251218D01*
X539612Y248171D01*
Y239030D01*
X545706Y257312D02*
Y239030D01*
X554847D01*
X557894Y242077D01*
Y245124D01*
Y248171D01*
X554847Y251218D01*
X545706D01*
X567035Y239030D02*
X573129D01*
X576176Y242077D01*
Y248171D01*
X573129Y251218D01*
X567035D01*
X563988Y248171D01*
Y242077D01*
X567035Y239030D01*
X582270D02*
X588364D01*
X585317D01*
Y257312D01*
X582270D01*
M02*
