%FSLAX44Y44*%
%MOMM*%
G71*
G01*
G75*
G04 Layer_Color=8421504*
%ADD10R,0.8000X0.9000*%
%ADD11R,0.9000X0.8000*%
%ADD12R,1.5000X0.8000*%
%ADD13R,0.8000X1.5000*%
%ADD14R,1.1000X1.2500*%
G04:AMPARAMS|DCode=15|XSize=1.25mm|YSize=1.1mm|CornerRadius=0.275mm|HoleSize=0mm|Usage=FLASHONLY|Rotation=90.000|XOffset=0mm|YOffset=0mm|HoleType=Round|Shape=RoundedRectangle|*
%AMROUNDEDRECTD15*
21,1,1.2500,0.5500,0,0,90.0*
21,1,0.7000,1.1000,0,0,90.0*
1,1,0.5500,0.2750,0.3500*
1,1,0.5500,0.2750,-0.3500*
1,1,0.5500,-0.2750,-0.3500*
1,1,0.5500,-0.2750,0.3500*
%
%ADD15ROUNDEDRECTD15*%
%ADD16R,1.6800X1.5600*%
%ADD17R,0.8000X0.8000*%
%ADD18R,0.8000X0.8000*%
%ADD19R,0.7000X0.9500*%
%ADD20R,5.6000X5.6000*%
%ADD21R,2.0000X1.2000*%
%ADD22R,5.5000X2.0000*%
%ADD23R,0.3000X0.8500*%
%ADD24R,0.8500X0.3000*%
%ADD25C,0.2540*%
%ADD26C,1.0000*%
%ADD27C,1.2500*%
%ADD28C,2.4000*%
%ADD29C,3.2500*%
%ADD30C,1.5000*%
%ADD31C,0.7000*%
%ADD32C,0.1000*%
%ADD33C,0.2000*%
%ADD34C,0.2500*%
%ADD35C,0.3000*%
D10*
X223250Y166500D02*
D03*
X239250D02*
D03*
X235000Y206000D02*
D03*
X251000D02*
D03*
X114750Y160000D02*
D03*
X130750D02*
D03*
X166500Y330000D02*
D03*
X150500D02*
D03*
X235000Y234000D02*
D03*
X251000D02*
D03*
X126250Y330000D02*
D03*
X110250D02*
D03*
X88010Y142240D02*
D03*
X72010D02*
D03*
D11*
X307000Y294000D02*
D03*
Y278000D02*
D03*
X201000Y248000D02*
D03*
Y264000D02*
D03*
X43000Y229000D02*
D03*
Y245000D02*
D03*
X201000Y231000D02*
D03*
Y215000D02*
D03*
D12*
X351000Y256000D02*
D03*
X351000Y282000D02*
D03*
X371000Y397000D02*
D03*
X371000Y371000D02*
D03*
X21000Y287000D02*
D03*
X21000Y313000D02*
D03*
D13*
X296000Y332000D02*
D03*
X322000Y332000D02*
D03*
D14*
X330200Y538160D02*
D03*
X90170Y537780D02*
D03*
X39370Y538160D02*
D03*
X351000Y320750D02*
D03*
X382270Y538160D02*
D03*
D15*
X330200Y561660D02*
D03*
X90170Y561280D02*
D03*
X39370Y561660D02*
D03*
X351000Y297250D02*
D03*
X382270Y561660D02*
D03*
D16*
X308000Y188000D02*
D03*
Y238000D02*
D03*
X351000D02*
D03*
Y188000D02*
D03*
D17*
X330200Y500000D02*
D03*
Y516000D02*
D03*
X90170Y500000D02*
D03*
Y516000D02*
D03*
X39370Y500000D02*
D03*
Y516000D02*
D03*
X382270Y500000D02*
D03*
Y516000D02*
D03*
D18*
X73000Y166000D02*
D03*
X89000D02*
D03*
X374000Y338000D02*
D03*
X358000D02*
D03*
D19*
X262750Y280000D02*
D03*
X279250D02*
D03*
D20*
X260250Y381250D02*
D03*
D21*
X332250Y403750D02*
D03*
Y358750D02*
D03*
D22*
X63000Y380000D02*
D03*
X153000D02*
D03*
D23*
X76800Y189760D02*
D03*
X81800D02*
D03*
X86800D02*
D03*
X91800D02*
D03*
X96800D02*
D03*
X101800D02*
D03*
X106800D02*
D03*
X111800D02*
D03*
X116800D02*
D03*
X121800D02*
D03*
X126800D02*
D03*
X131800D02*
D03*
X136800D02*
D03*
X141800D02*
D03*
X146800D02*
D03*
X151800D02*
D03*
X151800Y287760D02*
D03*
X146800D02*
D03*
X141800D02*
D03*
X136800D02*
D03*
X131800D02*
D03*
X126800D02*
D03*
X121800D02*
D03*
X116800D02*
D03*
X111800D02*
D03*
X106800D02*
D03*
X101800D02*
D03*
X96800D02*
D03*
X91800D02*
D03*
X86800D02*
D03*
X81800D02*
D03*
X76800Y287760D02*
D03*
D24*
X163800Y201260D02*
D03*
Y206260D02*
D03*
Y211260D02*
D03*
Y216260D02*
D03*
Y221260D02*
D03*
Y226260D02*
D03*
Y231260D02*
D03*
Y236260D02*
D03*
Y241260D02*
D03*
Y246260D02*
D03*
Y251260D02*
D03*
Y256260D02*
D03*
Y261260D02*
D03*
Y266260D02*
D03*
Y271260D02*
D03*
Y276260D02*
D03*
X65300D02*
D03*
Y271260D02*
D03*
Y266260D02*
D03*
Y261260D02*
D03*
Y256260D02*
D03*
Y251260D02*
D03*
Y246260D02*
D03*
Y241260D02*
D03*
Y236260D02*
D03*
Y231260D02*
D03*
Y226260D02*
D03*
Y221260D02*
D03*
Y216260D02*
D03*
Y211260D02*
D03*
Y206260D02*
D03*
Y201260D02*
D03*
M02*
