%FSLAX44Y44*%
%MOMM*%
G71*
G01*
G75*
G04 Layer_Color=8421504*
%ADD10R,0.9000X0.8000*%
%ADD11R,0.8000X0.9000*%
%ADD12R,1.5000X0.8000*%
%ADD13R,0.8000X1.5000*%
%ADD14R,1.6800X1.5600*%
%ADD15R,0.7000X0.9500*%
%ADD16R,0.8000X0.8000*%
%ADD17R,0.8000X0.8000*%
%ADD18R,5.6000X5.6000*%
%ADD19R,2.0000X1.2000*%
%ADD20R,5.5000X2.0000*%
%ADD21R,0.8500X0.3000*%
%ADD22R,0.3000X0.8500*%
%ADD23R,1.1000X1.2500*%
%ADD24C,1.0000*%
%ADD25C,0.5080*%
%ADD26C,0.2540*%
%ADD27C,0.5000*%
%ADD28C,2.0000*%
%ADD29C,3.2500*%
%ADD30C,1.5000*%
%ADD31C,2.4000*%
%ADD32C,0.7000*%
%ADD33C,0.7100*%
%ADD34C,0.2000*%
%ADD35C,0.1000*%
%ADD36C,0.2500*%
%ADD37C,0.1800*%
%ADD38C,0.3000*%
D10*
X126500Y307000D02*
D03*
Y323000D02*
D03*
X185250Y246250D02*
D03*
Y230250D02*
D03*
X153500Y307000D02*
D03*
Y323000D02*
D03*
X185250Y198750D02*
D03*
Y214750D02*
D03*
X41750Y253250D02*
D03*
Y269250D02*
D03*
X205000Y198750D02*
D03*
Y214750D02*
D03*
D11*
X122250Y153000D02*
D03*
X106250D02*
D03*
X49000Y236250D02*
D03*
X33000D02*
D03*
X121250Y338500D02*
D03*
X105250D02*
D03*
X76250D02*
D03*
X92250D02*
D03*
X258000Y198750D02*
D03*
X274000D02*
D03*
D12*
X19250Y279250D02*
D03*
X19250Y253250D02*
D03*
X351000Y282000D02*
D03*
X351000Y256000D02*
D03*
X371000Y371000D02*
D03*
X371000Y397000D02*
D03*
D13*
X285500Y315750D02*
D03*
X259500Y315750D02*
D03*
D14*
X351000Y187750D02*
D03*
Y237750D02*
D03*
X304250Y187750D02*
D03*
Y237750D02*
D03*
D15*
X240000Y198750D02*
D03*
X223500D02*
D03*
D16*
X382270Y500000D02*
D03*
Y516000D02*
D03*
X330200Y500000D02*
D03*
Y516000D02*
D03*
X90170Y500000D02*
D03*
Y516000D02*
D03*
X39370Y500000D02*
D03*
Y516000D02*
D03*
D17*
X122750Y170250D02*
D03*
X106750D02*
D03*
X378500Y337000D02*
D03*
X362500D02*
D03*
D18*
X260250Y381250D02*
D03*
D19*
X332250Y403750D02*
D03*
Y358750D02*
D03*
D20*
X186250Y384500D02*
D03*
X96250D02*
D03*
D21*
X65300Y201260D02*
D03*
Y206260D02*
D03*
Y211260D02*
D03*
Y216260D02*
D03*
Y221260D02*
D03*
Y226260D02*
D03*
Y231260D02*
D03*
Y236260D02*
D03*
Y241260D02*
D03*
Y246260D02*
D03*
Y251260D02*
D03*
Y256260D02*
D03*
Y261260D02*
D03*
Y266260D02*
D03*
Y271260D02*
D03*
Y276260D02*
D03*
X163800D02*
D03*
Y271260D02*
D03*
Y266260D02*
D03*
Y261260D02*
D03*
Y256260D02*
D03*
Y251260D02*
D03*
Y246260D02*
D03*
Y241260D02*
D03*
Y236260D02*
D03*
Y231260D02*
D03*
Y226260D02*
D03*
Y221260D02*
D03*
Y216260D02*
D03*
Y211260D02*
D03*
Y206260D02*
D03*
Y201260D02*
D03*
D22*
X76800Y287760D02*
D03*
X81800Y287760D02*
D03*
X86800D02*
D03*
X91800D02*
D03*
X96800D02*
D03*
X101800D02*
D03*
X106800D02*
D03*
X111800D02*
D03*
X116800D02*
D03*
X121800D02*
D03*
X126800D02*
D03*
X131800D02*
D03*
X136800D02*
D03*
X141800D02*
D03*
X146800D02*
D03*
X151800D02*
D03*
X151800Y189760D02*
D03*
X146800D02*
D03*
X141800D02*
D03*
X136800D02*
D03*
X131800D02*
D03*
X126800D02*
D03*
X121800D02*
D03*
X116800D02*
D03*
X111800D02*
D03*
X106800D02*
D03*
X101800D02*
D03*
X96800D02*
D03*
X91800D02*
D03*
X86800D02*
D03*
X81800D02*
D03*
X76800D02*
D03*
D23*
X351000Y297250D02*
D03*
X351000Y320750D02*
D03*
X39370Y538160D02*
D03*
X39370Y561660D02*
D03*
X90170Y561280D02*
D03*
X90170Y537780D02*
D03*
X330200Y538160D02*
D03*
X330200Y561660D02*
D03*
X382270D02*
D03*
X382270Y538160D02*
D03*
M02*
