%FSLAX44Y44*%
%MOMM*%
G71*
G01*
G75*
G04 Layer_Color=65535*
%ADD10R,0.9000X0.8000*%
%ADD11R,0.8000X0.9000*%
%ADD12R,1.5000X0.8000*%
%ADD13R,0.8000X1.5000*%
%ADD14R,1.6800X1.5600*%
%ADD15R,0.7000X0.9500*%
%ADD16R,0.8000X0.8000*%
%ADD17R,0.8000X0.8000*%
%ADD18R,5.6000X5.6000*%
%ADD19R,2.0000X1.2000*%
%ADD20R,5.5000X2.0000*%
%ADD21R,0.8500X0.3000*%
%ADD22R,0.3000X0.8500*%
%ADD23R,1.1000X1.2500*%
%ADD24C,1.0000*%
%ADD25C,0.5080*%
%ADD26C,0.2540*%
%ADD27C,0.5000*%
%ADD28C,2.0000*%
%ADD29C,3.2500*%
%ADD30C,1.5000*%
%ADD31C,2.4000*%
%ADD32C,0.7000*%
%ADD33C,0.7100*%
%ADD34C,0.2000*%
%ADD35C,0.1000*%
%ADD36C,0.2500*%
%ADD37C,0.1800*%
%ADD38C,0.3000*%
G36*
X95170Y547030D02*
X85670D01*
X90170Y551530D01*
X95170Y547030D01*
D02*
G37*
G36*
X351000Y307000D02*
X346000Y311500D01*
X355500D01*
X351000Y307000D01*
D02*
G37*
G36*
X44370Y547410D02*
X34870D01*
X39370Y551910D01*
X44370Y547410D01*
D02*
G37*
G36*
X387270D02*
X377770D01*
X382270Y551910D01*
X387270Y547410D01*
D02*
G37*
G36*
X335200D02*
X325700D01*
X330200Y551910D01*
X335200Y547410D01*
D02*
G37*
D26*
X6390Y-56190D02*
X138390D01*
X6390Y128810D02*
X138390D01*
X176930Y741020D02*
X226680D01*
X226930D02*
X231930Y736020D01*
X236930Y581020D02*
Y626020D01*
Y581020D02*
X286930D01*
X171930Y736020D02*
X176930Y741020D01*
X166930Y581020D02*
Y626020D01*
X116930Y581020D02*
X166930D01*
X116930Y486020D02*
Y581020D01*
X286930Y486020D02*
Y581020D01*
X116930Y486020D02*
X286930D01*
X231930Y631020D02*
Y736020D01*
Y631020D02*
X236930Y626020D01*
X171930Y631020D02*
Y736020D01*
X166930Y626020D02*
X171930Y631020D01*
X206250Y398500D02*
Y409500D01*
X76250Y409500D02*
X206250D01*
X76250Y398500D02*
Y409500D01*
Y359500D02*
Y370500D01*
Y359500D02*
X206250D01*
Y370500D01*
X375765Y423250D02*
X391000D01*
Y433407D01*
X375765Y448642D02*
Y438485D01*
X391000D01*
Y448642D01*
X383382Y438485D02*
Y443563D01*
X375765Y453720D02*
X391000D01*
Y461338D01*
X388461Y463877D01*
X378304D01*
X375765Y461338D01*
Y453720D01*
X378304Y468955D02*
X375765Y471494D01*
Y476573D01*
X378304Y479112D01*
X388461D01*
X391000Y476573D01*
Y471494D01*
X388461Y468955D01*
X378304D01*
X322765Y423250D02*
X338000D01*
Y433407D01*
X322765Y448642D02*
Y438485D01*
X338000D01*
Y448642D01*
X330382Y438485D02*
Y443563D01*
X322765Y453720D02*
X338000D01*
Y461338D01*
X335461Y463877D01*
X325304D01*
X322765Y461338D01*
Y453720D01*
X338000Y468955D02*
Y474034D01*
Y471494D01*
X322765D01*
X325304Y468955D01*
X81765Y423250D02*
X97000D01*
Y433407D01*
X81765Y448642D02*
Y438485D01*
X97000D01*
Y448642D01*
X89382Y438485D02*
Y443563D01*
X81765Y453720D02*
X97000D01*
Y461338D01*
X94461Y463877D01*
X84304D01*
X81765Y461338D01*
Y453720D01*
X97000Y479112D02*
Y468955D01*
X86843Y479112D01*
X84304D01*
X81765Y476573D01*
Y471494D01*
X84304Y468955D01*
X30765Y423250D02*
X46000D01*
Y433407D01*
X30765Y448642D02*
Y438485D01*
X46000D01*
Y448642D01*
X38382Y438485D02*
Y443563D01*
X30765Y453720D02*
X46000D01*
Y461338D01*
X43461Y463877D01*
X33304D01*
X30765Y461338D01*
Y453720D01*
X33304Y468955D02*
X30765Y471494D01*
Y476573D01*
X33304Y479112D01*
X35843D01*
X38382Y476573D01*
Y474034D01*
Y476573D01*
X40922Y479112D01*
X43461D01*
X46000Y476573D01*
Y471494D01*
X43461Y468955D01*
D34*
X66612Y188760D02*
G03*
X66612Y188760I-2061J0D01*
G01*
X340500Y158500D02*
X399500D01*
X340000Y45000D02*
X400000D01*
X340000Y164000D02*
X400000D01*
Y45000D02*
Y163750D01*
X340000Y45000D02*
Y163750D01*
X257250Y44250D02*
Y163000D01*
X317250Y44250D02*
Y163000D01*
X257250Y163250D02*
X317250D01*
X257250Y44250D02*
X317250D01*
X257750Y157750D02*
X316750D01*
X364000Y191500D02*
X365500D01*
X336500D02*
X338000D01*
X363500Y233750D02*
X365500D01*
X363500Y230250D02*
Y233750D01*
X336500D02*
X338500D01*
Y229750D02*
Y233750D01*
X365500Y191500D02*
Y233750D01*
X336500Y191500D02*
Y233750D01*
X317250Y191500D02*
X318750D01*
X289750D02*
X291250D01*
X316750Y233750D02*
X318750D01*
X316750Y230250D02*
Y233750D01*
X289750D02*
X291750D01*
Y229750D02*
Y233750D01*
X318750Y191500D02*
Y233750D01*
X289750Y191500D02*
Y233750D01*
X214250Y208750D02*
X249250D01*
Y188750D02*
Y208750D01*
X214250Y188750D02*
X249250D01*
X214250D02*
Y208750D01*
X77550Y202010D02*
Y275510D01*
X151050D01*
Y202010D02*
Y275510D01*
X68050Y192510D02*
X71050D01*
X68050D02*
Y195510D01*
Y282010D02*
Y285010D01*
X71050D01*
X157550D02*
X160550D01*
Y282010D02*
Y285010D01*
X157550Y192010D02*
X161050D01*
Y195510D01*
X77550Y202010D02*
X151050D01*
X347000Y307250D02*
X355000D01*
X35370Y551660D02*
X43370D01*
X86170Y551280D02*
X94170D01*
X326200Y551660D02*
X334200D01*
X378270D02*
X386270D01*
D35*
X362750Y141000D02*
X400000D01*
X340000Y91500D02*
X377250D01*
X325000Y164000D02*
X340000D01*
X325000Y45000D02*
Y163750D01*
Y45000D02*
X340250D01*
X242250Y44250D02*
X257500D01*
X242250D02*
Y163000D01*
Y163250D02*
X257250D01*
Y90750D02*
X294500D01*
X280000Y140250D02*
X317250D01*
X378520Y507250D02*
Y508750D01*
X386020Y507250D02*
Y508750D01*
X326450Y507250D02*
Y508750D01*
X333950Y507250D02*
Y508750D01*
X86420Y507250D02*
Y508750D01*
X93920Y507250D02*
Y508750D01*
X35620Y507250D02*
Y508750D01*
X43120Y507250D02*
Y508750D01*
X114000Y166500D02*
X115500D01*
X114000Y174000D02*
X115500D01*
X369750Y333250D02*
X371250D01*
X369750Y340750D02*
X371250D01*
D36*
X138390Y37310D02*
Y128810D01*
Y-56190D02*
Y8310D01*
X6390Y-56190D02*
Y8560D01*
Y37310D02*
Y128810D01*
X13000Y261250D02*
Y271250D01*
X25500Y261250D02*
Y271250D01*
X344750Y264000D02*
Y274000D01*
X357250Y264000D02*
Y274000D01*
X377250Y379000D02*
Y389000D01*
X364750Y379000D02*
Y389000D01*
X267500Y322000D02*
X277500D01*
X267500Y309500D02*
X277500D01*
D37*
X143331Y316336D02*
X144997Y318002D01*
Y321334D01*
X143331Y323000D01*
X136666D01*
X135000Y321334D01*
Y318002D01*
X136666Y316336D01*
X144997Y306339D02*
Y313003D01*
X139998D01*
X141664Y309671D01*
Y308005D01*
X139998Y306339D01*
X136666D01*
X135000Y308005D01*
Y311337D01*
X136666Y313003D01*
X262251Y168251D02*
Y178247D01*
X267250D01*
X268916Y176581D01*
Y173249D01*
X267250Y171583D01*
X262251D01*
X278913Y168251D02*
X272248D01*
X278913Y174915D01*
Y176581D01*
X277246Y178247D01*
X273914D01*
X272248Y176581D01*
X377001Y169001D02*
Y178997D01*
X382000D01*
X383666Y177331D01*
Y173999D01*
X382000Y172333D01*
X377001D01*
X386998Y169001D02*
X390330D01*
X388664D01*
Y178997D01*
X386998Y177331D01*
X19414Y145247D02*
X16082D01*
X17748D01*
Y136916D01*
X16082Y135250D01*
X14416D01*
X12750Y136916D01*
X22747Y135250D02*
X26079D01*
X24413D01*
Y145247D01*
X22747Y143581D01*
X90164Y156331D02*
X88498Y157997D01*
X85166D01*
X83500Y156331D01*
Y149666D01*
X85166Y148000D01*
X88498D01*
X90164Y149666D01*
X93497Y148000D02*
X96829D01*
X95163D01*
Y157997D01*
X93497Y156331D01*
X38414Y225331D02*
X36748Y226997D01*
X33416D01*
X31750Y225331D01*
Y218666D01*
X33416Y217000D01*
X36748D01*
X38414Y218666D01*
X48411Y217000D02*
X41747D01*
X48411Y223664D01*
Y225331D01*
X46745Y226997D01*
X43413D01*
X41747Y225331D01*
X188331Y267335D02*
X189997Y269002D01*
Y272334D01*
X188331Y274000D01*
X181666D01*
X180000Y272334D01*
Y269002D01*
X181666Y267335D01*
X188331Y264003D02*
X189997Y262337D01*
Y259005D01*
X188331Y257339D01*
X186665D01*
X184998Y259005D01*
Y260671D01*
Y259005D01*
X183332Y257339D01*
X181666D01*
X180000Y259005D01*
Y262337D01*
X181666Y264003D01*
X170581Y316835D02*
X172247Y318502D01*
Y321834D01*
X170581Y323500D01*
X163916D01*
X162250Y321834D01*
Y318502D01*
X163916Y316835D01*
X162250Y308505D02*
X172247D01*
X167248Y313503D01*
Y306839D01*
X188331Y181085D02*
X189997Y182752D01*
Y186084D01*
X188331Y187750D01*
X181666D01*
X180000Y186084D01*
Y182752D01*
X181666Y181085D01*
X189997Y171089D02*
X188331Y174421D01*
X184998Y177753D01*
X181666D01*
X180000Y176087D01*
Y172755D01*
X181666Y171089D01*
X183332D01*
X184998Y172755D01*
Y177753D01*
X109915Y328081D02*
X108248Y329747D01*
X104916D01*
X103250Y328081D01*
Y321416D01*
X104916Y319750D01*
X108248D01*
X109915Y321416D01*
X113247Y329747D02*
X119911D01*
Y328081D01*
X113247Y321416D01*
Y319750D01*
X79165Y327831D02*
X77498Y329497D01*
X74166D01*
X72500Y327831D01*
Y321166D01*
X74166Y319500D01*
X77498D01*
X79165Y321166D01*
X82497Y327831D02*
X84163Y329497D01*
X87495D01*
X89161Y327831D01*
Y326165D01*
X87495Y324498D01*
X89161Y322832D01*
Y321166D01*
X87495Y319500D01*
X84163D01*
X82497Y321166D01*
Y322832D01*
X84163Y324498D01*
X82497Y326165D01*
Y327831D01*
X84163Y324498D02*
X87495D01*
X22331Y314335D02*
X23997Y316002D01*
Y319334D01*
X22331Y321000D01*
X15666D01*
X14000Y319334D01*
Y316002D01*
X15666Y314335D01*
Y311003D02*
X14000Y309337D01*
Y306005D01*
X15666Y304339D01*
X22331D01*
X23997Y306005D01*
Y309337D01*
X22331Y311003D01*
X20665D01*
X18998Y309337D01*
Y304339D01*
X44831Y308085D02*
X46497Y309752D01*
Y313084D01*
X44831Y314750D01*
X38166D01*
X36500Y313084D01*
Y309752D01*
X38166Y308085D01*
X36500Y304753D02*
Y301421D01*
Y303087D01*
X46497D01*
X44831Y304753D01*
Y296423D02*
X46497Y294756D01*
Y291424D01*
X44831Y289758D01*
X38166D01*
X36500Y291424D01*
Y294756D01*
X38166Y296423D01*
X44831D01*
X371331Y278335D02*
X372997Y280002D01*
Y283334D01*
X371331Y285000D01*
X364666D01*
X363000Y283334D01*
Y280002D01*
X364666Y278335D01*
X363000Y275003D02*
Y271671D01*
Y273337D01*
X372997D01*
X371331Y275003D01*
X363000Y266673D02*
Y263340D01*
Y265006D01*
X372997D01*
X371331Y266673D01*
X391331Y396335D02*
X392997Y398002D01*
Y401334D01*
X391331Y403000D01*
X384666D01*
X383000Y401334D01*
Y398002D01*
X384666Y396335D01*
X383000Y393003D02*
Y389671D01*
Y391337D01*
X392997D01*
X391331Y393003D01*
X383000Y378008D02*
Y384673D01*
X389664Y378008D01*
X391331D01*
X392997Y379674D01*
Y383006D01*
X391331Y384673D01*
X261164Y338081D02*
X259498Y339747D01*
X256166D01*
X254500Y338081D01*
Y331416D01*
X256166Y329750D01*
X259498D01*
X261164Y331416D01*
X264497Y329750D02*
X267829D01*
X266163D01*
Y339747D01*
X264497Y338081D01*
X272827D02*
X274494Y339747D01*
X277826D01*
X279492Y338081D01*
Y336414D01*
X277826Y334748D01*
X276160D01*
X277826D01*
X279492Y333082D01*
Y331416D01*
X277826Y329750D01*
X274494D01*
X272827Y331416D01*
X260665Y216831D02*
X258998Y218497D01*
X255666D01*
X254000Y216831D01*
Y210166D01*
X255666Y208500D01*
X258998D01*
X260665Y210166D01*
X263997Y208500D02*
X267329D01*
X265663D01*
Y218497D01*
X263997Y216831D01*
X277326Y208500D02*
Y218497D01*
X272327Y213498D01*
X278992D01*
X207831Y241586D02*
X209497Y243252D01*
Y246584D01*
X207831Y248250D01*
X201166D01*
X199500Y246584D01*
Y243252D01*
X201166Y241586D01*
X199500Y238253D02*
Y234921D01*
Y236587D01*
X209497D01*
X207831Y238253D01*
X209497Y223258D02*
Y229923D01*
X204498D01*
X206164Y226590D01*
Y224924D01*
X204498Y223258D01*
X201166D01*
X199500Y224924D01*
Y228256D01*
X201166Y229923D01*
X359253Y537250D02*
X369250D01*
Y542248D01*
X367584Y543914D01*
X360919D01*
X359253Y542248D01*
Y537250D01*
X369250Y547247D02*
Y550579D01*
Y548913D01*
X359253D01*
X360919Y547247D01*
X307503Y537250D02*
X317500D01*
Y542248D01*
X315834Y543914D01*
X309169D01*
X307503Y542248D01*
Y537250D01*
X317500Y547247D02*
Y550579D01*
Y548913D01*
X307503D01*
X309169Y547247D01*
X66753Y537250D02*
X76750D01*
Y542248D01*
X75084Y543914D01*
X68419D01*
X66753Y542248D01*
Y537250D01*
X76750Y547247D02*
Y550579D01*
Y548913D01*
X66753D01*
X68419Y547247D01*
X16003Y537250D02*
X26000D01*
Y542248D01*
X24334Y543914D01*
X17669D01*
X16003Y542248D01*
Y537250D01*
X26000Y547247D02*
Y550579D01*
Y548913D01*
X16003D01*
X17669Y547247D01*
X372000Y214747D02*
Y204750D01*
X376998D01*
X378665Y206416D01*
Y213081D01*
X376998Y214747D01*
X372000D01*
X388661Y204750D02*
X381997D01*
X388661Y211415D01*
Y213081D01*
X386995Y214747D01*
X383663D01*
X381997Y213081D01*
X270250Y247747D02*
Y237750D01*
X275248D01*
X276915Y239416D01*
Y246081D01*
X275248Y247747D01*
X270250D01*
X280247Y246081D02*
X281913Y247747D01*
X285245D01*
X286911Y246081D01*
Y244415D01*
X285245Y242748D01*
X283579D01*
X285245D01*
X286911Y241082D01*
Y239416D01*
X285245Y237750D01*
X281913D01*
X280247Y239416D01*
X371997Y322000D02*
X362000D01*
Y317002D01*
X363666Y315336D01*
X370331D01*
X371997Y317002D01*
Y322000D01*
X362000Y307005D02*
X371997D01*
X366998Y312003D01*
Y305339D01*
X232414Y223997D02*
X225750D01*
Y218998D01*
X229082D01*
X225750D01*
Y214000D01*
X235747Y223997D02*
Y214000D01*
X240745D01*
X242411Y215666D01*
Y217332D01*
X240745Y218998D01*
X235747D01*
X240745D01*
X242411Y220665D01*
Y222331D01*
X240745Y223997D01*
X235747D01*
X245744Y214000D02*
X249076D01*
X247410D01*
Y223997D01*
X245744Y222331D01*
X117000Y462000D02*
Y471997D01*
X121998D01*
X123665Y470331D01*
Y466998D01*
X121998Y465332D01*
X117000D01*
X120332D02*
X123665Y462000D01*
X126997D02*
X130329D01*
X128663D01*
Y471997D01*
X126997Y470331D01*
X369500Y495000D02*
X359503D01*
Y499998D01*
X361169Y501665D01*
X364502D01*
X366168Y499998D01*
Y495000D01*
Y498332D02*
X369500Y501665D01*
Y511661D02*
Y504997D01*
X362836Y511661D01*
X361169D01*
X359503Y509995D01*
Y506663D01*
X361169Y504997D01*
X318750Y495000D02*
X308753D01*
Y499998D01*
X310419Y501665D01*
X313752D01*
X315418Y499998D01*
Y495000D01*
Y498332D02*
X318750Y501665D01*
Y511661D02*
Y504997D01*
X312085Y511661D01*
X310419D01*
X308753Y509995D01*
Y506663D01*
X310419Y504997D01*
X77250Y495000D02*
X67253D01*
Y499998D01*
X68919Y501665D01*
X72252D01*
X73918Y499998D01*
Y495000D01*
Y498332D02*
X77250Y501665D01*
Y511661D02*
Y504997D01*
X70585Y511661D01*
X68919D01*
X67253Y509995D01*
Y506663D01*
X68919Y504997D01*
X26250Y495000D02*
X16253D01*
Y499998D01*
X17919Y501665D01*
X21252D01*
X22918Y499998D01*
Y495000D01*
Y498332D02*
X26250Y501665D01*
Y511661D02*
Y504997D01*
X19585Y511661D01*
X17919D01*
X16253Y509995D01*
Y506663D01*
X17919Y504997D01*
X81500Y165250D02*
Y175247D01*
X86498D01*
X88165Y173581D01*
Y170248D01*
X86498Y168582D01*
X81500D01*
X84832D02*
X88165Y165250D01*
X91497Y173581D02*
X93163Y175247D01*
X96495D01*
X98161Y173581D01*
Y171915D01*
X96495Y170248D01*
X94829D01*
X96495D01*
X98161Y168582D01*
Y166916D01*
X96495Y165250D01*
X93163D01*
X91497Y166916D01*
X363000Y344500D02*
Y354497D01*
X367998D01*
X369664Y352831D01*
Y349498D01*
X367998Y347832D01*
X363000D01*
X366332D02*
X369664Y344500D01*
X377995D02*
Y354497D01*
X372997Y349498D01*
X379661D01*
X249500Y425497D02*
Y417166D01*
X251166Y415500D01*
X254498D01*
X256164Y417166D01*
Y425497D01*
X266161Y415500D02*
X259497D01*
X266161Y422164D01*
Y423831D01*
X264495Y425497D01*
X261163D01*
X259497Y423831D01*
X150680Y425517D02*
Y423851D01*
X154012Y420518D01*
X157345Y423851D01*
Y425517D01*
X154012Y420518D02*
Y415520D01*
X160677D02*
X164009D01*
X162343D01*
Y425517D01*
X160677Y423851D01*
X70000Y305997D02*
Y297666D01*
X71666Y296000D01*
X74998D01*
X76665Y297666D01*
Y305997D01*
X79997Y296000D02*
X83329D01*
X81663D01*
Y305997D01*
X79997Y304331D01*
D38*
X346000Y10618D02*
X356157D01*
X376470D02*
X386627D01*
X381549Y15696D02*
Y5539D01*
X272000Y10618D02*
X282157D01*
X302470D02*
X312627D01*
X307549Y15696D02*
Y5539D01*
X339000Y22000D02*
Y37235D01*
X344078Y32157D01*
X349157Y37235D01*
Y22000D01*
X354235D02*
Y32157D01*
X359314Y37235D01*
X364392Y32157D01*
Y22000D01*
Y29618D01*
X354235D01*
X369470Y37235D02*
X374548D01*
X372009D01*
Y22000D01*
X369470D01*
X374548D01*
X382166D02*
Y37235D01*
X392323Y22000D01*
Y37235D01*
X269000D02*
Y22000D01*
X276618D01*
X279157Y24539D01*
Y27078D01*
X276618Y29618D01*
X269000D01*
X276618D01*
X279157Y32157D01*
Y34696D01*
X276618Y37235D01*
X269000D01*
X284235Y22000D02*
Y32157D01*
X289313Y37235D01*
X294392Y32157D01*
Y22000D01*
Y29618D01*
X284235D01*
X299470Y37235D02*
X309627D01*
X304548D01*
Y22000D01*
X314705D02*
Y24539D01*
X317244D01*
Y22000D01*
X314705D01*
X160000Y461000D02*
Y476235D01*
X167617D01*
X170157Y473696D01*
Y468618D01*
X167617Y466078D01*
X160000D01*
X182853Y476235D02*
X177774D01*
X175235Y473696D01*
Y463539D01*
X177774Y461000D01*
X182853D01*
X185392Y463539D01*
Y473696D01*
X182853Y476235D01*
X190470D02*
X200627D01*
X195548D01*
Y461000D01*
X205705D02*
Y471157D01*
X210784Y476235D01*
X215862Y471157D01*
Y461000D01*
Y468618D01*
X205705D01*
X220940Y461000D02*
Y476235D01*
X228558D01*
X231097Y473696D01*
Y468618D01*
X228558Y466078D01*
X220940D01*
X226019D02*
X231097Y461000D01*
X236175Y476235D02*
Y461000D01*
X243793D01*
X246332Y463539D01*
Y473696D01*
X243793Y476235D01*
X236175D01*
M02*
