%FSLAX25Y25*%
%MOIN*%
G70*
G01*
G75*
%ADD10C,0.00500*%
%ADD11C,0.00667*%
D10*
X112992Y6693D02*
X116929D01*
X114961Y4724D02*
Y8661D01*
X93307Y20472D02*
X97244D01*
X95276Y18504D02*
Y22441D01*
X93307Y48031D02*
X97244D01*
X95276Y46063D02*
Y50000D01*
X112992Y34252D02*
X116929D01*
X114961Y32283D02*
Y36220D01*
X112992Y61811D02*
X116929D01*
X114961Y59842D02*
Y63779D01*
X150394Y6693D02*
X154331D01*
X152362Y4724D02*
Y8661D01*
X130709Y20472D02*
X134646D01*
X132677Y18504D02*
Y22441D01*
X130709Y48031D02*
X134646D01*
X132677Y46063D02*
Y50000D01*
X150394Y34252D02*
X154331D01*
X152362Y32283D02*
Y36220D01*
X150394Y61811D02*
X154331D01*
X152362Y59842D02*
Y63779D01*
X57453Y213000D02*
X62177D01*
X59815Y210638D02*
Y215362D01*
X77138Y213000D02*
X81862D01*
X79500Y210638D02*
Y215362D01*
X96823Y213000D02*
X101547D01*
X99185Y210638D02*
Y215362D01*
X39248Y44020D02*
X42791D01*
X41020Y42248D02*
Y45791D01*
X34248Y34020D02*
X37791D01*
X36020Y32248D02*
Y35791D01*
X14248Y34020D02*
X17791D01*
X16020Y32248D02*
Y35791D01*
X19248Y44020D02*
X22791D01*
X21020Y42248D02*
Y45791D01*
X29248Y44020D02*
X32791D01*
X31020Y42248D02*
Y45791D01*
X24248Y34020D02*
X27791D01*
X26020Y32248D02*
Y35791D01*
X3500Y8980D02*
X13500D01*
X8500Y3980D02*
Y13980D01*
X43500Y8980D02*
X53500D01*
X48500Y3980D02*
Y13980D01*
X146260Y92913D02*
X147441D01*
X146850Y92323D02*
Y93504D01*
X88779Y185433D02*
X89961D01*
X89370Y184843D02*
Y186024D01*
X54134Y68110D02*
X55315D01*
X54724Y67520D02*
Y68701D01*
X17126Y114862D02*
X18307D01*
X17717Y114272D02*
Y115453D01*
X34909Y190157D02*
X36091D01*
X35500Y189567D02*
Y190748D01*
X14909Y190157D02*
X16091D01*
X15500Y189567D02*
Y190748D01*
X21850Y114961D02*
X23031D01*
X22441Y114370D02*
Y115551D01*
X67913Y115354D02*
X69095D01*
X68504Y114764D02*
Y115945D01*
X33268Y100394D02*
X34449D01*
X33858Y99803D02*
Y100984D01*
X38386Y103150D02*
X39567D01*
X38976Y102559D02*
Y103740D01*
X129331Y191732D02*
X130512D01*
X129921Y191142D02*
Y192323D01*
X149803Y191732D02*
X150984D01*
X150394Y191142D02*
Y192323D01*
X115157Y96063D02*
X116339D01*
X115748Y95472D02*
Y96653D01*
X48720Y68307D02*
X49902D01*
X49311Y67716D02*
Y68898D01*
X50394Y82480D02*
X51575D01*
X50984Y81890D02*
Y83071D01*
X56595Y98032D02*
X57776D01*
X57185Y97441D02*
Y98622D01*
M02*
